v 158.522 -173.933 -65.8481
v 159.367 -173.883 -64.6057
v 159.139 -174.773 -65.0966
v 159.759 -174.632 -64.4454
v 160.663 -173.761 -63.8547
v 160.634 -173.133 -64.329
v 160.693 -173.269 -63.9525
v 161.023 -173.518 -63.7796
v 158.341 -175.068 -67.7972
v 158.921 -175.462 -68.2989
v 159.087 -176.072 -67.6586
v 158.75 -174.578 -69.0624
v 159.979 -177.42 -66.5938
v 158.399 -173.72 -69.0314
v 158.809 -173.959 -69.4068
v 159.15 -173.237 -69.5304
v 158.1 -174.041 -67.5942
v 158.964 -172.59 -68.0413
v 158.774 -175.26 -66.2046
v 161.076 -175.705 -64.2081
v 160.893 -176.357 -64.6447
v 161.935 -176.458 -64.3879
v 159.492 -172.079 -68.7732
v 160.225 -171.608 -68.3751
v 160.682 -172.611 -66.3334
v 160.265 -171.758 -68.0208
v 160.743 -171.618 -68.0536
v 161.021 -173.12 -63.9686
v 161.376 -173.046 -64.061
v 161.486 -173.274 -63.8566
v 161.534 -172.895 -64.4572
v 161.747 -172.998 -64.1681
v 161.864 -173.292 -63.9611
v 162.055 -172.562 -65.2135
v 162.095 -175.195 -63.8575
v 162.52 -172.605 -64.658
v 162.88 -173.012 -64.2835
v 159.416 -175.923 -68.424
v 159.728 -176.595 -68.6497
v 160.038 -176.239 -68.9155
v 160.387 -176.771 -69.3256
v 159.426 -176.518 -68.0589
v 159.771 -177.549 -67.5005
v 159.72 -177.047 -68.5349
v 160.943 -178.825 -68.0089
v 162.063 -178.468 -66.2726
v 159.477 -175.072 -68.8985
v 159.588 -174.103 -69.4899
v 159.839 -175.399 -68.8421
v 160.615 -175.849 -69.0695
v 161.443 -174.309 -69.2397
v 161.815 -174.951 -69.1597
v 161.087 -171.552 -69.1285
v 161.599 -172.73 -69.8872
v 162.415 -171.768 -69.3044
v 162.566 -171.652 -68.8734
v 163.272 -174.801 -63.9945
v 164.488 -175.424 -64.8285
v 163.921 -176.92 -65.0352
v 164.735 -172.621 -65.7433
v 164.602 -172.064 -66.8542
v 165.547 -173.079 -66.3938
v 165.389 -172.312 -66.8522
v 160.973 -177.875 -69.7327
v 161.679 -176.953 -69.9493
v 160.724 -178.396 -69.1734
v 160.886 -178.782 -68.7358
v 161.064 -178.759 -69.1676
v 161.375 -178.954 -68.5834
v 161.27 -178.302 -69.6951
v 161.634 -178.745 -69.1005
v 161.981 -178.621 -68.7137
v 161.776 -178.045 -69.7563
v 162.099 -178.079 -69.5118
v 162.186 -175.665 -69.3879
v 161.866 -176.662 -69.8848
v 163.113 -175.138 -69.3271
v 162.094 -176.838 -70.0543
v 162.607 -176.833 -69.9453
v 162.692 -176.081 -69.8285
v 163.222 -175.478 -69.5861
v 163.256 -175.774 -69.8563
v 163.729 -175.178 -69.675
v 163.576 -176.677 -69.3288
v 163.254 -178.172 -66.7564
v 164.266 -177.506 -67.0395
v 163.266 -174.503 -69.4872
v 163.591 -174.864 -69.5249
v 165.13 -173.566 -69.6858
v 164.828 -177.175 -66.3385
v 165.385 -176.549 -66.0421
v 165.794 -176.363 -66.2051
v 165.906 -175.704 -66.1753
v 165.635 -176.846 -66.699
v 165.939 -176.509 -66.3727
v 166.141 -176.212 -66.3677
v 166.229 -175.802 -66.4226
v 166.302 -176.272 -66.6031
v 166.429 -175.817 -66.7069
v 166.447 -176.156 -67.2259
v 166.65 -175.774 -67.5133
v 163.865 -171.748 -69.4202
v 164.503 -171.77 -68.6363
v 164.605 -171.909 -69.196
v 164.946 -172.023 -68.5859
v 164.446 -172.157 -69.5536
v 165.403 -172.725 -69.0334
v 165.848 -173.024 -68.2602
v 166.527 -174.913 -67.1842
v 166.4 -174.161 -67.7865
v 166.095 -174.145 -69.4609
v 165.524 -175.121 -69.9853
v 166.674 -175.235 -67.859
v 166.157 -175.958 -68.4525
v 166.522 -175.163 -68.8381
v 158.522 -173.933 -65.8481
v 158.522 -173.933 -65.8481
v 159.367 -173.883 -64.6057
v 160.693 -173.269 -63.9525
v 158.75 -174.578 -69.0624
v 158.809 -173.959 -69.4068
v 159.15 -173.237 -69.5304
v 158.1 -174.041 -67.5942
v 160.225 -171.608 -68.3751
v 161.021 -173.12 -63.9686
v 161.087 -171.552 -69.1285
v 162.415 -171.768 -69.3044
v 164.735 -172.621 -65.7433
v 161.064 -178.759 -69.1676
v 161.27 -178.302 -69.6951
v 161.27 -178.302 -69.6951
v 162.692 -176.081 -69.8285
v 163.256 -175.774 -69.8563
v 163.256 -175.774 -69.8563
v 165.13 -173.566 -69.6858
v 166.447 -176.156 -67.2259
v 163.865 -171.748 -69.4202
v 163.865 -171.748 -69.4202
v 164.446 -172.157 -69.5536
v 166.095 -174.145 -69.4609
v 166.095 -174.145 -69.4609
v 165.524 -175.121 -69.9853
v 165.524 -175.121 -69.9853
vn -0.888347 -0.208537 0.409087
vn -0.644605 -0.047588 0.763034
vn -0.738371 -0.352778 0.574766
vn -0.529569 -0.282765 0.79975
vn -0.347316 -0.0439589 0.936717
vn -0.397059 0.87083 0.289826
vn -0.452962 0.813531 0.364682
vn -0.0753604 0.175402 0.981608
vn -0.881067 -0.432958 -0.190443
vn -0.61133 -0.568871 -0.550146
vn -0.836868 -0.500925 -0.22074
vn -0.781212 -0.381513 -0.494121
vn -0.638427 -0.630471 0.441494
vn -0.880634 0.154004 -0.44807
vn -0.693271 -0.0608539 -0.718103
vn -0.48702 0.451276 -0.747771
vn -0.969058 -0.234322 0.0775916
vn -0.672979 0.711845 0.200938
vn -0.877101 -0.404396 0.259148
vn -0.28947 -0.347794 0.891766
vn -0.444097 -0.551408 0.706206
vn -0.0711817 -0.537532 0.840234
vn -0.599439 0.718478 -0.352792
vn -0.363623 0.862592 -0.351729
vn -0.281901 0.895139 0.345337
vn -0.359898 0.820585 0.443975
vn -0.0880371 0.945251 0.314244
vn -0.237745 0.924622 0.297577
vn 0.007551 0.83958 0.543184
vn 0.126244 0.472453 0.872268
vn -0.173014 0.939518 0.295587
vn 0.0565807 0.763642 0.643156
vn 0.215183 0.424475 0.879498
vn -0.170026 0.966235 0.193603
vn 0.0110674 -0.250675 0.968008
vn 0.0151011 0.897947 0.439844
vn 0.266174 0.536011 0.801151
vn -0.679856 -0.317562 -0.661022
vn -0.782425 -0.0958539 -0.615324
vn -0.554726 0.0675123 -0.82929
vn -0.518816 0.19247 -0.832938
vn -0.893518 -0.2941 -0.33931
vn -0.841965 -0.538769 -0.0287002
vn -0.83869 -0.272911 -0.471294
vn -0.46394 -0.865082 0.190769
vn -0.0619272 -0.862591 0.502098
vn -0.219163 -0.474722 -0.852412
vn -0.0745472 -0.357062 -0.931101
vn -0.317391 -0.152129 -0.936013
vn -0.241271 0.133976 -0.961165
vn -0.0836479 -0.257141 -0.962747
vn -0.113983 0.0332324 -0.992927
vn -0.251979 0.636923 -0.728584
vn -0.0471307 0.11754 -0.991949
vn 0.0408376 0.960611 -0.274879
vn 0.0457793 0.997656 -0.0508608
vn 0.341572 0.0409318 0.938964
vn 0.615094 -0.066396 0.785653
vn 0.405871 -0.544625 0.733929
vn 0.657402 0.249095 0.711179
vn 0.0771042 0.967012 0.242781
vn 0.794779 0.276215 0.540399
vn 0.666881 0.71486 0.210343
vn -0.500515 -0.175332 -0.847788
vn -0.33953 0.222358 -0.913935
vn -0.725287 -0.514111 -0.457874
vn -0.595191 -0.790736 -0.143122
vn -0.627265 -0.597392 -0.499662
vn 0.0988947 -0.992782 -0.0678545
vn -0.0588762 -0.206436 -0.976687
vn 0.337608 -0.80726 -0.484099
vn 0.594861 -0.76356 -0.251229
vn 0.289027 -0.489143 -0.822923
vn 0.563574 -0.598883 -0.568967
vn -0.241536 0.4047 -0.881974
vn -0.313992 0.453385 -0.834177
vn -0.275088 0.189391 -0.94258
vn -0.110199 0.102711 -0.988588
vn 0.331984 -0.212191 -0.919109
vn -0.293259 0.544299 -0.785963
vn -0.371204 0.547517 -0.749955
vn -0.139259 0.167352 -0.976012
vn -0.34413 0.353558 -0.869811
vn 0.489487 -0.647708 -0.583847
vn 0.482347 -0.875727 0.02104
vn 0.453583 -0.864556 -0.216344
vn -0.144759 -0.190859 -0.970885
vn -0.309849 0.0837528 -0.94709
vn -0.107139 0.0724262 -0.991603
vn 0.477542 -0.810288 0.339687
vn 0.505597 -0.440796 0.741667
vn 0.477428 -0.253028 0.841451
vn 0.598137 -0.0458245 0.800082
vn 0.546045 -0.837415 0.0238924
vn 0.557159 -0.599298 0.574818
vn 0.632357 -0.220879 0.742521
vn 0.745647 0.0269596 0.665796
vn 0.816031 -0.432473 0.383485
vn 0.912363 -0.0345094 0.407926
vn 0.652199 -0.73728 -0.176222
vn 0.964325 -0.264422 -0.0125571
vn -0.0183973 0.463564 -0.885872
vn 0.284299 0.958733 -0.00219625
vn 0.515303 0.764679 -0.386948
vn 0.657005 0.741772 -0.134608
vn 0.063267 0.248229 -0.966633
vn 0.688982 0.528412 -0.496069
vn 0.839845 0.525576 -0.135759
vn 0.943012 0.185813 0.276045
vn 0.940085 0.339225 0.03417
vn 0.411599 0.360501 -0.837034
vn -0.172204 0.277922 -0.945042
vn 0.994257 0.106932 -0.00433587
vn 0.576444 -0.717753 -0.390567
vn 0.921031 -0.139235 -0.363751
vn -0.473542 0.819987 0.321526
vn -0.824225 0.541511 0.165588
vn -0.532674 0.772519 0.345648
vn -0.333288 0.279027 0.90059
vn -0.207662 -0.546107 -0.811569
vn -0.154666 -0.292558 -0.943657
vn -0.123448 -0.108583 -0.986393
vn -0.85172 0.52176 0.048369
vn -0.347941 0.902312 0.254498
vn -0.059115 0.517277 0.853774
vn 0.0573224 0.998352 0.00289062
vn -0.0494042 0.547947 -0.835053
vn 0.257506 0.846807 0.465413
vn -0.0432015 -0.917325 -0.395788
vn -0.557193 -0.488729 -0.671327
vn 0.180667 -0.732375 -0.656496
vn 0.03344 0.149816 -0.988148
vn -0.335484 0.536102 -0.774626
vn 0.328821 -0.386797 -0.861548
vn 0.477722 0.36204 -0.800443
vn 0.940394 -0.268785 0.208359
vn 0.0986342 0.982838 -0.155887
vn 0.34239 0.693635 -0.633751
vn 0.531667 0.522508 -0.66657
vn 0.89852 0.387244 -0.206649
vn 0.750025 -0.0866819 -0.655705
vn 0.496938 -0.496881 -0.71145
vn 0.366773 0.264585 -0.891893
g grp1
usemtl mtl1
f 3//3 2//2 1//1 
f 3//3 4//4 2//2 
f 116//116 118//118 6//6 
f 1//1 17//17 19//19 
f 19//19 3//3 1//1 
f 3//3 21//21 4//4 
f 4//4 5//5 2//2 
f 118//118 7//7 6//6 
f 2//2 5//5 119//119 
f 5//5 8//8 119//119 
f 5//5 35//35 8//8 
f 6//6 7//7 28//28 
f 31//31 6//6 28//28 
f 125//125 119//119 8//8 
f 17//17 9//9 19//19 
f 12//12 10//10 9//9 
f 19//19 9//9 11//11 
f 120//120 47//47 10//10 
f 9//9 10//10 11//11 
f 120//120 48//48 47//47 
f 10//10 47//47 38//38 
f 10//10 38//38 11//11 
f 42//42 11//11 38//38 
f 43//43 19//19 11//11 
f 19//19 43//43 13//13 
f 43//43 11//11 42//42 
f 13//13 46//46 21//21 
f 14//14 18//18 23//23 
f 15//15 12//12 14//14 
f 14//14 12//12 9//9 
f 16//16 15//15 14//14 
f 14//14 23//23 16//16 
f 16//16 23//23 53//53 
f 120//120 121//121 48//48 
f 48//48 121//121 122//122 
f 18//18 123//123 117//117 
f 25//25 116//116 6//6 
f 18//18 14//14 123//123 
f 25//25 18//18 116//116 
f 9//9 17//17 14//14 
f 4//4 21//21 20//20 
f 13//13 3//3 19//19 
f 3//3 13//13 21//21 
f 21//21 22//22 20//20 
f 24//24 53//53 23//23 
f 18//18 124//124 23//23 
f 26//26 124//124 18//18 
f 124//124 26//26 27//27 
f 126//126 124//124 27//27 
f 126//126 27//27 61//61 
f 25//25 26//26 18//18 
f 26//26 25//25 27//27 
f 25//25 61//61 27//27 
f 5//5 4//4 20//20 
f 8//8 35//35 57//57 
f 30//30 125//125 8//8 
f 8//8 57//57 30//30 
f 31//31 28//28 29//29 
f 29//29 125//125 30//30 
f 6//6 31//31 25//25 
f 31//31 29//29 32//32 
f 30//30 32//32 29//29 
f 30//30 57//57 33//33 
f 32//32 30//30 33//33 
f 31//31 34//34 25//25 
f 36//36 34//34 31//31 
f 57//57 37//37 33//33 
f 32//32 36//36 31//31 
f 36//36 32//32 37//37 
f 32//32 33//33 37//37 
f 25//25 34//34 61//61 
f 20//20 35//35 5//5 
f 35//35 20//20 22//22 
f 22//22 59//59 35//35 
f 35//35 59//59 57//57 
f 61//61 34//34 36//36 
f 57//57 60//60 37//37 
f 36//36 37//37 128//128 
f 42//42 38//38 39//39 
f 47//47 49//49 38//38 
f 42//42 39//39 44//44 
f 39//39 38//38 40//40 
f 49//49 40//40 38//38 
f 39//39 41//41 44//44 
f 41//41 39//39 40//40 
f 50//50 40//40 49//49 
f 40//40 50//50 41//41 
f 64//64 44//44 41//41 
f 65//65 64//64 41//41 
f 43//43 42//42 44//44 
f 67//67 45//45 43//43 
f 13//13 43//43 45//45 
f 45//45 46//46 13//13 
f 44//44 66//66 43//43 
f 66//66 67//67 43//43 
f 22//22 21//21 46//46 
f 46//46 45//45 69//69 
f 59//59 22//22 46//46 
f 46//46 69//69 85//85 
f 54//54 16//16 53//53 
f 48//48 122//122 54//54 
f 51//51 47//47 48//48 
f 47//47 51//51 49//49 
f 51//51 48//48 54//54 
f 51//51 50//50 49//49 
f 50//50 51//51 52//52 
f 52//52 75//75 50//50 
f 51//51 77//77 52//52 
f 41//41 50//50 75//75 
f 85//85 59//59 46//46 
f 56//56 126//126 61//61 
f 56//56 55//55 126//126 
f 53//53 127//127 54//54 
f 77//77 51//51 87//87 
f 51//51 54//54 87//87 
f 59//59 58//58 57//57 
f 58//58 59//59 93//93 
f 58//58 93//93 60//60 
f 59//59 91//91 93//93 
f 54//54 127//127 102//102 
f 137//137 55//55 56//56 
f 103//103 137//137 56//56 
f 103//103 56//56 61//61 
f 63//63 103//103 61//61 
f 61//61 36//36 128//128 
f 63//63 61//61 128//128 
f 63//63 60//60 62//62 
f 58//58 60//60 57//57 
f 78//78 64//64 65//65 
f 65//65 41//41 76//76 
f 78//78 65//65 76//76 
f 79//79 73//73 78//78 
f 66//66 68//68 67//67 
f 129//129 69//69 67//67 
f 67//67 69//69 45//45 
f 64//64 66//66 44//44 
f 85//85 69//69 72//72 
f 69//69 129//129 71//71 
f 78//78 70//70 64//64 
f 64//64 130//130 66//66 
f 66//66 130//130 68//68 
f 71//71 129//129 131//131 
f 73//73 71//71 131//131 
f 74//74 71//71 73//73 
f 69//69 71//71 72//72 
f 78//78 73//73 70//70 
f 72//72 71//71 74//74 
f 84//84 85//85 72//72 
f 73//73 79//79 74//74 
f 74//74 84//84 72//72 
f 74//74 79//79 84//84 
f 52//52 77//77 75//75 
f 76//76 41//41 75//75 
f 78//78 76//76 75//75 
f 78//78 75//75 80//80 
f 80//80 75//75 77//77 
f 80//80 77//77 81//81 
f 79//79 78//78 132//132 
f 79//79 132//132 82//82 
f 133//133 80//80 81//81 
f 133//133 81//81 83//83 
f 83//83 81//81 77//77 
f 83//83 77//77 88//88 
f 134//134 84//84 79//79 
f 112//112 133//133 83//83 
f 84//84 134//134 142//142 
f 86//86 85//85 84//84 
f 84//84 114//114 86//86 
f 90//90 59//59 85//85 
f 85//85 86//86 90//90 
f 89//89 54//54 106//106 
f 88//88 77//77 87//87 
f 87//87 54//54 89//89 
f 87//87 89//89 88//88 
f 89//89 83//83 88//88 
f 112//112 83//83 89//89 
f 135//135 139//139 107//107 
f 135//135 107//107 111//111 
f 110//110 109//109 113//113 
f 101//101 113//113 109//109 
f 59//59 90//90 91//91 
f 95//95 91//91 90//90 
f 95//95 92//92 91//91 
f 92//92 93//93 91//91 
f 62//62 60//60 93//93 
f 96//96 93//93 92//92 
f 96//96 97//97 93//93 
f 92//92 95//95 96//96 
f 97//97 62//62 93//93 
f 86//86 114//114 94//94 
f 86//86 94//94 90//90 
f 90//90 94//94 95//95 
f 98//98 95//95 94//94 
f 96//96 95//95 98//98 
f 96//96 98//98 97//97 
f 62//62 99//99 109//109 
f 99//99 62//62 97//97 
f 98//98 99//99 97//97 
f 114//114 100//100 94//94 
f 94//94 100//100 98//98 
f 136//136 101//101 99//99 
f 98//98 136//136 99//99 
f 99//99 101//101 109//109 
f 106//106 54//54 102//102 
f 103//103 104//104 137//137 
f 105//105 104//104 103//103 
f 105//105 103//103 63//63 
f 139//139 138//138 104//104 
f 108//108 105//105 63//63 
f 104//104 107//107 139//139 
f 105//105 107//107 104//104 
f 107//107 105//105 108//108 
f 108//108 140//140 107//107 
f 62//62 110//110 63//63 
f 108//108 63//63 110//110 
f 110//110 62//62 109//109 
f 110//110 140//140 108//108 
f 111//111 143//143 135//135 
f 84//84 142//142 114//114 
f 114//114 115//115 101//101 
f 100//100 114//114 101//101 
f 115//115 113//113 101//101 
f 114//114 142//142 115//115 
f 142//142 141//141 115//115 
f 110//110 115//115 140//140 
f 113//113 115//115 110//110 
v -166.69 -175.506 -67.7835
v -166.268 -176.236 -67.0692
v -166.223 -175.628 -66.5241
v -166.397 -174.192 -67.6957
v -164.987 -172.467 -65.873
v -165.405 -172.227 -66.6735
v -164.255 -172.197 -66.0883
v -163.885 -174.02 -64.3846
v -166.383 -175.48 -68.9764
v -166.148 -175.979 -68.4656
v -165.668 -175.658 -69.437
v -165.646 -172.887 -68.6635
v -166.192 -174.4 -69.4352
v -165.204 -174.683 -70.0904
v -164.218 -176.597 -65.0253
v -163.826 -171.681 -68.7111
v -164.117 -171.757 -69.5344
v -163.313 -171.688 -69.137
v -162.936 -171.916 -69.4868
v -162.918 -175.09 -63.9065
v -161.66 -176.401 -64.4509
v -162.35 -172.688 -64.5751
v -161.77 -173.05 -64.1202
v -161.829 -173.466 -63.8596
v -161.603 -172.839 -64.5285
v -160.688 -173.04 -64.4197
v -161.062 -173.703 -63.7391
v -160.867 -173.221 -63.8923
v -160.557 -173.603 -63.8607
v -160.808 -174.024 -63.8063
v -163.032 -173.796 -69.7866
v -162.581 -178.456 -66.5378
v -161.239 -178.024 -65.9395
v -161.938 -171.617 -69.3138
v -161.425 -171.901 -69.69
v -160.753 -171.45 -69.0781
v -161.08 -171.544 -68.0127
v -160.148 -171.71 -68.1816
v -160.14 -171.863 -69.2943
v -159.73 -171.819 -68.6837
v -158.818 -173.652 -65.7626
v -159.842 -174.424 -64.3403
v -159.481 -173.558 -64.9009
v -159.591 -175.085 -64.8605
v -158.725 -174.028 -65.4662
v -161.741 -178.649 -68.9848
v -161.392 -177.797 -70.0035
v -160.781 -178.394 -69.0862
v -161.018 -177.216 -69.6442
v -161.169 -178.818 -67.4237
v -159.934 -174.951 -69.0526
v -159.05 -174.363 -69.3224
v -160.553 -175.695 -69.017
v -159.743 -176.052 -68.6814
v -159.32 -176.324 -67.9304
v -158.694 -175.46 -67.9014
v -159.073 -175.38 -68.5382
v -159.903 -177.383 -66.7158
v -158.733 -172.631 -68.1451
v -158.891 -172.688 -68.9711
v -158.506 -172.809 -68.4289
v -159.103 -173.446 -69.5257
v -158.37 -173.708 -69.0895
v -158.583 -175.329 -66.7901
v -158.309 -173.131 -67.7974
v -158.08 -174.578 -67.5553
v -158.159 -173.389 -68.0955
v -158.331 -174.834 -68.3752
v -158.451 -174.53 -68.8851
v -158.124 -174.114 -68.6227
v -166.69 -175.506 -67.7835
v -166.268 -176.236 -67.0692
v -164.987 -172.467 -65.873
v -165.405 -172.227 -66.6735
v -166.383 -175.48 -68.9764
v -166.383 -175.48 -68.9764
v -165.668 -175.658 -69.437
v -166.192 -174.4 -69.4352
v -165.204 -174.683 -70.0904
v -165.204 -174.683 -70.0904
v -164.218 -176.597 -65.0253
v -164.117 -171.757 -69.5344
v -162.936 -171.916 -69.4868
v -161.77 -173.05 -64.1202
v -160.867 -173.221 -63.8923
v -162.581 -178.456 -66.5378
v -162.581 -178.456 -66.5378
v -161.239 -178.024 -65.9395
v -161.938 -171.617 -69.3138
v -161.741 -178.649 -68.9848
v -161.741 -178.649 -68.9848
v -161.392 -177.797 -70.0035
v -161.392 -177.797 -70.0035
v -161.392 -177.797 -70.0035
v -160.781 -178.394 -69.0862
v -160.781 -178.394 -69.0862
v -161.018 -177.216 -69.6442
v -161.169 -178.818 -67.4237
v -161.169 -178.818 -67.4237
v -161.169 -178.818 -67.4237
v -159.743 -176.052 -68.6814
v -158.37 -173.708 -69.0895
vn -0.994851 0.0662641 0.0766801
vn -0.734246 -0.509073 0.44914
vn -0.837876 -0.00398208 0.545847
vn -0.945287 0.313941 0.0887306
vn -0.782389 0.183239 0.595223
vn -0.470343 0.879032 0.0779742
vn -0.121574 0.942439 0.311494
vn -0.504083 0.189 0.842722
vn -0.566804 -0.235395 -0.789507
vn -0.589593 -0.744826 -0.312432
vn -0.478876 -0.389431 -0.786779
vn -0.802084 0.550378 -0.231831
vn -0.851884 0.329298 -0.407255
vn -0.458305 -0.33405 -0.823631
vn -0.624371 -0.391623 0.675864
vn -0.112173 0.99325 0.0295344
vn -0.37988 0.842113 -0.3828
vn -0.0246033 0.947264 -0.319509
vn -0.0364674 0.159191 -0.986574
vn -0.17254 -0.153727 0.972933
vn 0.148105 -0.523431 0.839098
vn -0.127553 0.778575 0.614451
vn 0.0943526 0.868116 0.48731
vn -0.206294 0.364414 0.9081
vn 0.133524 0.89971 0.415563
vn 0.326381 0.869852 0.369909
vn 0.0568232 0.0866778 0.994615
vn 0.334049 0.802653 0.494125
vn 0.447883 0.162881 0.879131
vn 0.234054 -0.200615 0.9513
vn 0.0697488 -0.0674083 -0.995284
vn -0.51652 -0.765981 0.382727
vn -0.0139078 -0.795046 0.60639
vn -0.0713889 0.766693 -0.638032
vn 0.0559975 0.478701 -0.87619
vn 0.183912 0.948559 -0.257704
vn 0.107521 0.964174 0.242502
vn 0.394014 0.878318 0.27076
vn 0.412332 0.618024 -0.669349
vn 0.541303 0.830766 -0.129686
vn 0.64064 0.672801 0.370026
vn 0.572789 -0.140905 0.807501
vn 0.577215 0.61858 0.533087
vn 0.647464 -0.444812 0.618816
vn 0.876854 0.100687 0.470095
vn -0.430876 -0.8991 -0.0772293
vn -0.366086 -0.529007 -0.765593
vn 0.193772 -0.892206 -0.407947
vn 0.346777 0.288425 -0.8925
vn 0.0721417 -0.877951 0.473284
vn 0.183408 -0.404796 -0.895825
vn 0.284104 -0.392883 -0.874602
vn 0.304418 -0.0478085 -0.951338
vn 0.399217 0.044622 -0.91577
vn 0.798551 -0.482566 -0.359786
vn 0.776896 -0.592463 -0.213122
vn 0.492514 -0.521861 -0.696485
vn 0.760824 -0.607826 0.227365
vn 0.597162 0.770802 0.221952
vn 0.626811 0.549321 -0.552589
vn 0.779211 0.606665 -0.157441
vn 0.342054 0.12927 -0.930746
vn 0.812921 0.366786 -0.452359
vn 0.851291 -0.484381 0.201689
vn 0.809931 0.545589 0.215278
vn 0.964419 -0.259006 0.0530328
vn 0.961513 0.274264 -0.016503
vn 0.776773 -0.530914 -0.338753
vn 0.63711 -0.429202 -0.640216
vn 0.939508 -0.133116 -0.315603
vn -0.773461 -0.60259 -0.19658
vn -0.635691 -0.747682 -0.192012
vn -0.252739 0.779715 0.572859
vn -0.859228 0.226722 0.458611
vn -0.650421 -0.670975 -0.356014
vn -0.966679 0.0652265 -0.247541
vn -0.481658 -0.798405 -0.361324
vn -0.575065 -0.238853 -0.782463
vn -0.455555 0.326598 -0.828132
vn 0.216794 0.169643 -0.961365
vn -0.132314 -0.596013 0.791999
vn 0.0663916 0.157193 -0.985334
vn -0.0277731 0.806584 -0.590466
vn -0.198486 0.540587 0.817538
vn 0.00888036 0.369508 0.929185
vn -0.426612 -0.881475 -0.202493
vn -0.0463973 -0.760461 0.647724
vn 0.557439 -0.602232 0.571471
vn -0.0846869 0.996061 -0.0262767
vn -0.40295 -0.629515 -0.664336
vn 0.193772 -0.892206 -0.407947
vn 0.143865 -0.782799 -0.605416
vn 0.306224 0.350161 -0.88522
vn 0.783957 -0.129943 -0.607064
vn 0.794113 -0.606757 -0.0350848
vn 0.763293 -0.144786 -0.629619
vn 0.763328 -0.218938 -0.607781
vn 0.678905 -0.703174 0.211268
vn -0.254867 -0.966908 -0.0114409
vn 0.233321 -0.95392 -0.188672
vn 0.701007 -0.446614 -0.55599
vn 0.593055 -0.219103 -0.774777
g grp144
usemtl mtl144
f 144//144 145//145 146//146 
f 146//146 145//145 158//158 
f 147//147 144//144 146//146 
f 145//145 175//175 158//158 
f 155//155 147//147 149//149 
f 147//147 156//156 144//144 
f 156//156 147//147 155//155 
f 146//146 158//158 151//151 
f 158//158 163//163 151//151 
f 146//146 148//148 217//217 
f 146//146 151//151 148//148 
f 150//150 149//149 216//216 
f 146//146 217//217 147//147 
f 151//151 163//163 167//167 
f 150//150 216//216 165//165 
f 151//151 165//165 216//216 
f 167//167 165//165 151//151 
f 221//221 154//154 152//152 
f 157//157 154//154 221//221 
f 156//156 160//160 222//222 
f 218//218 153//153 214//214 
f 214//214 153//153 215//215 
f 215//215 153//153 229//229 
f 219//219 144//144 156//156 
f 218//218 220//220 153//153 
f 229//229 153//153 220//220 
f 229//229 220//220 189//189 
f 160//160 156//156 155//155 
f 224//224 230//230 164//164 
f 149//149 150//150 159//159 
f 155//155 149//149 160//160 
f 149//149 159//159 160//160 
f 174//174 225//225 162//162 
f 226//226 160//160 161//161 
f 160//160 159//159 161//161 
f 177//177 226//226 161//161 
f 232//232 161//161 159//159 
f 224//224 164//164 163//163 
f 173//173 163//163 164//164 
f 159//159 150//150 180//180 
f 232//232 159//159 180//180 
f 180//180 150//150 165//165 
f 180//180 165//165 168//168 
f 165//165 166//166 168//168 
f 227//227 165//165 167//167 
f 169//169 180//180 168//168 
f 168//168 166//166 171//171 
f 169//169 168//168 171//171 
f 228//228 227//227 167//167 
f 180//180 169//169 186//186 
f 169//169 171//171 186//186 
f 170//170 163//163 173//173 
f 167//167 163//163 170//170 
f 167//167 170//170 228//228 
f 170//170 172//172 228//228 
f 172//172 170//170 173//173 
f 172//172 173//173 185//185 
f 186//186 171//171 172//172 
f 164//164 185//185 173//173 
f 186//186 172//172 185//185 
f 157//157 190//190 154//154 
f 225//225 174//174 223//223 
f 223//223 174//174 196//196 
f 154//154 190//190 233//233 
f 164//164 230//230 176//176 
f 193//193 176//176 230//230 
f 241//241 201//201 231//231 
f 178//178 226//226 177//177 
f 178//178 174//174 162//162 
f 231//231 187//187 164//164 
f 187//187 231//231 201//201 
f 177//177 179//179 178//178 
f 179//179 182//182 178//178 
f 183//183 182//182 179//179 
f 179//179 232//232 180//180 
f 181//181 179//179 180//180 
f 180//180 186//186 181//181 
f 183//183 179//179 181//181 
f 181//181 186//186 184//184 
f 183//183 181//181 202//202 
f 181//181 184//184 202//202 
f 184//184 186//186 188//188 
f 187//187 185//185 164//164 
f 186//186 185//185 188//188 
f 187//187 188//188 185//185 
f 207//207 188//188 187//187 
f 191//191 234//234 235//235 
f 192//192 223//223 196//196 
f 223//223 192//192 236//236 
f 189//189 242//242 229//229 
f 192//192 196//196 197//197 
f 234//234 191//191 243//243 
f 238//238 201//201 241//241 
f 198//198 201//201 238//238 
f 240//240 244//244 198//198 
f 207//207 201//201 198//198 
f 237//237 240//240 239//239 
f 239//239 240//240 198//198 
f 196//196 174//174 194//194 
f 194//194 174//174 195//195 
f 200//200 196//196 194//194 
f 200//200 197//197 196//196 
f 244//244 200//200 198//198 
f 211//211 199//199 200//200 
f 199//199 198//198 200//200 
f 198//198 199//199 207//207 
f 200//200 194//194 195//195 
f 195//195 212//212 200//200 
f 200//200 212//212 211//211 
f 207//207 187//187 201//201 
f 182//182 183//183 203//203 
f 203//203 183//183 204//204 
f 183//183 202//202 204//204 
f 204//204 202//202 208//208 
f 202//202 184//184 208//208 
f 205//205 182//182 203//203 
f 205//205 203//203 206//206 
f 206//206 203//203 204//204 
f 206//206 204//204 210//210 
f 204//204 208//208 210//210 
f 205//205 174//174 178//178 
f 178//178 182//182 205//205 
f 174//174 205//205 195//195 
f 205//205 245//245 195//195 
f 206//206 210//210 213//213 
f 245//245 212//212 195//195 
f 212//212 245//245 213//213 
f 208//208 184//184 188//188 
f 209//209 188//188 207//207 
f 188//188 210//210 208//208 
f 209//209 210//210 188//188 
f 199//199 211//211 209//209 
f 207//207 199//199 209//209 
f 211//211 213//213 209//209 
f 210//210 209//209 213//213 
f 211//211 212//212 213//213 
