<?xml version="1.0" encoding="utf-8"?>
<!-- Generator: Adobe Illustrator 25.1.0, SVG Export Plug-In . SVG Version: 6.00 Build 0)  -->
<svg version="1.1" id="レイヤー_1" xmlns="http://www.w3.org/2000/svg" xmlns:xlink="http://www.w3.org/1999/xlink" x="0px"
	 y="0px" viewBox="0 0 33 33" style="enable-background:new 0 0 33 33;" xml:space="preserve">
<g>
	<path d="M29.5,24.6c-0.6,0-1,0.4-1,1v2.9H4.1V8h12.2c0.6,0,1-0.4,1-1s-0.4-1-1-1H3.1c-0.6,0-1,0.4-1,1v22.5c0,0.6,0.4,1,1,1h26.4
		c0.6,0,1-0.4,1-1v-3.9C30.5,25,30,24.6,29.5,24.6z"/>
	<path d="M24.1,26.2c0.2,0.2,0.4,0.3,0.7,0.3s0.5-0.1,0.7-0.3l4.4-4.4c0.2-0.2,0.3-0.4,0.3-0.7V2.8c0-0.5-0.3-0.9-0.8-1
		c-0.1,0-0.2,0-0.3,0H20c-0.6,0-1,0.4-1,1v17.8c0,0.3,0.1,0.5,0.3,0.7L24.1,26.2z M24.8,24l-2.3-2.3h4.7L24.8,24z M28.2,3.8v15.9
		c0,0,0,0,0,0h-7.1c0,0-0.1,0-0.1,0V3.8H28.2z"/>
	<path d="M14.9,12.8H7.7c-0.6,0-1,0.4-1,1s0.4,1,1,1h7.1c0.6,0,1-0.4,1-1S15.4,12.8,14.9,12.8z"/>
	<path d="M14.9,17.8H7.7c-0.6,0-1,0.4-1,1s0.4,1,1,1h7.1c0.6,0,1-0.4,1-1S15.4,17.8,14.9,17.8z"/>
	<path d="M14.9,22.8H7.7c-0.6,0-1,0.4-1,1s0.4,1,1,1h7.1c0.6,0,1-0.4,1-1S15.4,22.8,14.9,22.8z"/>
</g>
</svg>
