<svg id="レイヤー_1" data-name="レイヤー 1" xmlns="http://www.w3.org/2000/svg" viewBox="0 0 257.99 58.33"><defs><style>.cls-1{fill:#fff;}</style></defs><title>18_PubCaseFinder_web_logo</title><path class="cls-1" d="M55.36,32.33a8.91,8.91,0,0,1-5.88,1.72H44.6v8.43H39.73V19H49.8a8.12,8.12,0,0,1,5.55,1.82c1.38,1.2,2.07,3.08,2.07,5.61C57.42,29.23,56.74,31.19,55.36,32.33Zm-3.74-8.45A3.94,3.94,0,0,0,49,23.1H44.6V30H49a3.75,3.75,0,0,0,2.6-.84,3.47,3.47,0,0,0,.94-2.68A3.24,3.24,0,0,0,51.62,23.88Z"/><path class="cls-1" d="M64.2,25.14V35.59a5.54,5.54,0,0,0,.35,2.23A2.41,2.41,0,0,0,67,39.14a3.17,3.17,0,0,0,3.17-1.88,6.92,6.92,0,0,0,.44-2.69V25.14h4.6V42.48H70.77V40s-.15.21-.32.48a3.09,3.09,0,0,1-.6.7,6.33,6.33,0,0,1-2,1.3,6.84,6.84,0,0,1-2.33.35q-3.84,0-5.17-2.77a10.69,10.69,0,0,1-.74-4.5V25.14Z"/><path class="cls-1" d="M92.44,27.22a10,10,0,0,1,1.94,6.37,11.18,11.18,0,0,1-1.92,6.7,7,7,0,0,1-8.82,1.79,6.8,6.8,0,0,1-1.7-1.78v2.18H77.47V19.06H82V27.4a6.79,6.79,0,0,1,1.91-1.85,5.69,5.69,0,0,1,3.14-.79A6.5,6.5,0,0,1,92.44,27.22ZM88.65,37.79a6.46,6.46,0,0,0,1-3.72A8.4,8.4,0,0,0,89.14,31a3.34,3.34,0,0,0-3.36-2.29A3.41,3.41,0,0,0,82.36,31a8.42,8.42,0,0,0-.48,3.09,6.46,6.46,0,0,0,1,3.69,3.41,3.41,0,0,0,3,1.46A3.17,3.17,0,0,0,88.65,37.79Z"/><path class="cls-1" d="M98.83,21.48A9.67,9.67,0,0,1,106,18.59q5.86,0,8.56,3.88a8.4,8.4,0,0,1,1.61,4.37h-4.9a6.61,6.61,0,0,0-1.2-2.54,4.83,4.83,0,0,0-3.88-1.53,4.78,4.78,0,0,0-4.13,2.16,10.49,10.49,0,0,0-1.51,6.1q0,3.94,1.59,5.91a5,5,0,0,0,4.06,2,4.59,4.59,0,0,0,3.84-1.68,7.43,7.43,0,0,0,1.21-2.73h4.87a10.54,10.54,0,0,1-3.22,6.24,9.35,9.35,0,0,1-6.63,2.4,10,10,0,0,1-7.87-3.24Q95.58,36.62,95.58,31,95.58,24.8,98.83,21.48Z"/><path class="cls-1" d="M125.32,31.93a6.84,6.84,0,0,0,1.81-.39,1.38,1.38,0,0,0,1-1.29,1.52,1.52,0,0,0-.75-1.47,4.73,4.73,0,0,0-2.2-.41,2.91,2.91,0,0,0-2.31.8,3.31,3.31,0,0,0-.64,1.59h-4.38A6.69,6.69,0,0,1,119.11,27c1.21-1.53,3.27-2.29,6.2-2.29a11,11,0,0,1,5.08,1.13q2.22,1.13,2.22,4.26v8c0,.56,0,1.22,0,2a2.75,2.75,0,0,0,.27,1.21,1.63,1.63,0,0,0,.67.52v.67h-4.93a4.66,4.66,0,0,1-.28-1,8.84,8.84,0,0,1-.13-1.05,9.49,9.49,0,0,1-2.18,1.74,6.59,6.59,0,0,1-3.33.84,5.76,5.76,0,0,1-3.91-1.34,4.79,4.79,0,0,1-1.54-3.81,4.94,4.94,0,0,1,2.48-4.63,11.21,11.21,0,0,1,4-1.12Zm2.77,2.12a5.08,5.08,0,0,1-.87.44,8.49,8.49,0,0,1-1.22.31L125,35a6.64,6.64,0,0,0-2.09.62,2.07,2.07,0,0,0-1.07,1.92,2,2,0,0,0,.66,1.68,2.43,2.43,0,0,0,1.59.52,4.73,4.73,0,0,0,2.73-.86,3.62,3.62,0,0,0,1.3-3.13Z"/><path class="cls-1" d="M138.79,36.94a3,3,0,0,0,.62,1.72,4.19,4.19,0,0,0,3.13.91,4.75,4.75,0,0,0,2.14-.4,1.28,1.28,0,0,0,.79-1.19,1.29,1.29,0,0,0-.64-1.16,25.76,25.76,0,0,0-4.74-1.37,10,10,0,0,1-4.17-1.83,4,4,0,0,1-1.21-3.12,5.41,5.41,0,0,1,1.89-4.13,7.6,7.6,0,0,1,5.32-1.72,9.81,9.81,0,0,1,5.3,1.29,5.55,5.55,0,0,1,2.35,4.48H145a2.7,2.7,0,0,0-.5-1.38,3.1,3.1,0,0,0-2.55-.92,3.64,3.64,0,0,0-2.11.46,1.32,1.32,0,0,0-.63,1.08,1.18,1.18,0,0,0,.67,1.13,29.69,29.69,0,0,0,4.73,1.26A8.6,8.6,0,0,1,148.71,34a4.38,4.38,0,0,1,1.34,3.26,5.27,5.27,0,0,1-1.92,4.21q-1.92,1.64-5.94,1.63t-6.05-1.73a5.6,5.6,0,0,1-1.95-4.4Z"/><path class="cls-1" d="M164,25.49a7,7,0,0,1,3,2.57,8.5,8.5,0,0,1,1.39,3.58,22.78,22.78,0,0,1,.15,3.44H155.94a4.16,4.16,0,0,0,1.81,3.66,4.54,4.54,0,0,0,2.5.65,3.5,3.5,0,0,0,3.45-2h4.63a5.62,5.62,0,0,1-1.68,3.13,8.43,8.43,0,0,1-6.53,2.53,9.45,9.45,0,0,1-6.1-2.13c-1.77-1.43-2.65-3.74-2.65-6.95q0-4.5,2.39-6.91a8.36,8.36,0,0,1,6.2-2.4A9.91,9.91,0,0,1,164,25.49Zm-6.78,3.92a4.61,4.61,0,0,0-1.21,2.68h7.81a3.8,3.8,0,0,0-1.21-2.74,4,4,0,0,0-2.69-.93A3.59,3.59,0,0,0,157.26,29.41Z"/><path class="cls-1" d="M169.92,19.06h16.72v4.12H174.79v5.4h10.39v4.07H174.79v9.83h-4.87Z"/><path class="cls-1" d="M192.81,23.07h-4.59V18.89h4.59Zm-4.59,2.07h4.59V42.48h-4.59Z"/><path class="cls-1" d="M208.58,26.14c1.14.93,1.7,2.49,1.7,4.66V42.48h-4.64V31.93a4.9,4.9,0,0,0-.36-2.1,2.56,2.56,0,0,0-2.53-1.33,3.13,3.13,0,0,0-3.14,1.95,6.66,6.66,0,0,0-.45,2.64v9.39h-4.53V25.17H199V27.7a7.56,7.56,0,0,1,1.65-1.92,5.71,5.71,0,0,1,3.53-1.05A6.62,6.62,0,0,1,208.58,26.14Z"/><path class="cls-1" d="M221.74,25.42a5.46,5.46,0,0,1,2,1.92V19.06h4.6V42.48h-4.41v-2.4a6.32,6.32,0,0,1-2.21,2.24,6.2,6.2,0,0,1-3.09.7,6.44,6.44,0,0,1-5.11-2.46,9.39,9.39,0,0,1-2.08-6.3,10.84,10.84,0,0,1,2-7,6.65,6.65,0,0,1,5.46-2.54A5.62,5.62,0,0,1,221.74,25.42Zm1.11,12.35a6.3,6.3,0,0,0,1-3.7c0-2.13-.54-3.64-1.61-4.55a3.42,3.42,0,0,0-2.29-.83,3.18,3.18,0,0,0-2.92,1.5,7,7,0,0,0-.93,3.73,6.83,6.83,0,0,0,.95,3.84,3.19,3.19,0,0,0,2.87,1.44A3.32,3.32,0,0,0,222.85,37.77Z"/><path class="cls-1" d="M242.44,25.49a7.06,7.06,0,0,1,3,2.57,8.49,8.49,0,0,1,1.38,3.58,22.78,22.78,0,0,1,.15,3.44H234.34a4.18,4.18,0,0,0,1.81,3.66,4.59,4.59,0,0,0,2.5.65,3.82,3.82,0,0,0,2.52-.79,3.87,3.87,0,0,0,.94-1.19h4.62a5.62,5.62,0,0,1-1.68,3.13,8.39,8.39,0,0,1-6.52,2.53,9.47,9.47,0,0,1-6.11-2.13c-1.76-1.43-2.64-3.74-2.64-6.95q0-4.5,2.38-6.91a8.39,8.39,0,0,1,6.21-2.4A9.89,9.89,0,0,1,242.44,25.49Zm-6.78,3.92a4.74,4.74,0,0,0-1.21,2.68h7.81a3.8,3.8,0,0,0-1.2-2.74,4,4,0,0,0-2.69-.93A3.6,3.6,0,0,0,235.66,29.41Z"/><path class="cls-1" d="M257.59,24.74l.39,0V29.4l-.76-.06-.54,0c-1.83,0-3.05.6-3.68,1.79a6.89,6.89,0,0,0-.52,3.08v8.29h-4.57V25.14h4.33v3a9.81,9.81,0,0,1,1.83-2.37,5,5,0,0,1,3.31-1.06Z"/><path class="cls-1" d="M39.8,56.07v-7.7h2.81a3.83,3.83,0,0,1,1.23.17,1.83,1.83,0,0,1,.77.47,1.72,1.72,0,0,1,.4.69,3.12,3.12,0,0,1,.11.82,1.82,1.82,0,0,1-.94,1.71,2.82,2.82,0,0,1-1,.34,6.24,6.24,0,0,1-1.06.1H40.52v3.4Zm2.39-4a5.14,5.14,0,0,0,.92-.07,1.76,1.76,0,0,0,.69-.24,1.27,1.27,0,0,0,.44-.48,1.81,1.81,0,0,0,.15-.8,1.34,1.34,0,0,0-.47-1.1A2.46,2.46,0,0,0,42.4,49H40.52v3.06Z"/><path class="cls-1" d="M45.84,56.07v-7.7h.64V51.3a4,4,0,0,1,.79-.66,1.79,1.79,0,0,1,1-.26,2.44,2.44,0,0,1,1,.18,1.55,1.55,0,0,1,.74.61,1.26,1.26,0,0,1,.24.61,4.78,4.78,0,0,1,0,.66v3.63h-.64V52.45a1.65,1.65,0,0,0-.33-1.12,1.4,1.4,0,0,0-1.1-.37,1.63,1.63,0,0,0-.55.09,1.7,1.7,0,0,0-.44.24,1.57,1.57,0,0,0-.34.34,1.59,1.59,0,0,0-.21.41,1.64,1.64,0,0,0-.12.51c0,.16,0,.34,0,.53v3Z"/><path class="cls-1" d="M52,53.45a3,3,0,0,0,.12.85,2,2,0,0,0,.35.69,1.59,1.59,0,0,0,.58.47,1.76,1.76,0,0,0,.81.18,1.78,1.78,0,0,0,1.08-.33,1.61,1.61,0,0,0,.6-.94h.72a3.64,3.64,0,0,1-.31.73,2.48,2.48,0,0,1-.48.59,2.43,2.43,0,0,1-.69.39,2.82,2.82,0,0,1-.92.14A2.66,2.66,0,0,1,52.68,56a2.1,2.1,0,0,1-.79-.61,2.57,2.57,0,0,1-.46-.92,4.19,4.19,0,0,1-.15-1.14,3.78,3.78,0,0,1,.17-1.14,2.94,2.94,0,0,1,.51-.94,2.21,2.21,0,0,1,.79-.63,2.47,2.47,0,0,1,1.07-.23,2.23,2.23,0,0,1,1.8.78,3.49,3.49,0,0,1,.64,2.29Zm3.62-.54a2.37,2.37,0,0,0-.12-.76,1.61,1.61,0,0,0-.33-.62,1.44,1.44,0,0,0-.55-.42,1.81,1.81,0,0,0-.76-.15,1.65,1.65,0,0,0-.75.16,1.79,1.79,0,0,0-.56.42,2.55,2.55,0,0,0-.37.62,3.16,3.16,0,0,0-.18.75Z"/><path class="cls-1" d="M57.72,56.07h-.64V50.53h.64v.77a4.3,4.3,0,0,1,.8-.66,1.74,1.74,0,0,1,1-.26,2.47,2.47,0,0,1,1,.18,1.6,1.6,0,0,1,.74.61,1.5,1.5,0,0,1,.24.61c0,.22,0,.43,0,.66v3.63h-.64V52.45a1.65,1.65,0,0,0-.34-1.12A1.39,1.39,0,0,0,59.4,51a1.53,1.53,0,0,0-.54.09,1.76,1.76,0,0,0-.45.24,1.52,1.52,0,0,0-.33.34,1.36,1.36,0,0,0-.22.41,2,2,0,0,0-.11.51,4.33,4.33,0,0,0,0,.53Z"/><path class="cls-1" d="M64.8,56.22a3,3,0,0,1-1-.2,2.22,2.22,0,0,1-.81-.54,2.58,2.58,0,0,1-.55-.91,3.53,3.53,0,0,1-.2-1.27,3.79,3.79,0,0,1,.16-1.14,2.57,2.57,0,0,1,.48-.93,2.24,2.24,0,0,1,.8-.62,2.87,2.87,0,0,1,2.25,0,2.37,2.37,0,0,1,.81.62,2.59,2.59,0,0,1,.47.92,4.26,4.26,0,0,1,.16,1.15,3.67,3.67,0,0,1-.18,1.19,2.83,2.83,0,0,1-.52.92,2.32,2.32,0,0,1-.82.6A2.52,2.52,0,0,1,64.8,56.22Zm1.88-2.92a3.82,3.82,0,0,0-.1-.92,2.29,2.29,0,0,0-.34-.74,1.61,1.61,0,0,0-.57-.5A1.93,1.93,0,0,0,64.8,51a1.79,1.79,0,0,0-.86.19,1.74,1.74,0,0,0-.58.53,2.22,2.22,0,0,0-.33.75,3.15,3.15,0,0,0-.11.87,3.51,3.51,0,0,0,.12.94,2.18,2.18,0,0,0,.36.75,1.73,1.73,0,0,0,.59.48,1.86,1.86,0,0,0,.81.17,1.76,1.76,0,0,0,.86-.2,1.64,1.64,0,0,0,.58-.53,2.57,2.57,0,0,0,.34-.75A3.44,3.44,0,0,0,66.68,53.3Z"/><path class="cls-1" d="M70.49,56.09l-.31.07a1.44,1.44,0,0,1-.43.06A1,1,0,0,1,69,56a1.18,1.18,0,0,1-.25-.87v-4H68v-.53h.78V49h.64v1.54h1v.53h-1v3.8c0,.13,0,.25,0,.35a.83.83,0,0,0,.06.25.34.34,0,0,0,.17.14,1.17,1.17,0,0,0,.31,0l.27,0,.26-.06Z"/><path class="cls-1" d="M71.47,57.56l.26,0,.28,0a.6.6,0,0,0,.43-.17,1.52,1.52,0,0,0,.29-.41,3.82,3.82,0,0,0,.18-.51,2,2,0,0,1,.18-.44l-2.15-5.57h.71l1.78,4.76,1.77-4.76h.7L73.83,56c-.12.35-.25.66-.36.94a4.2,4.2,0,0,1-.38.71,1.46,1.46,0,0,1-.44.45,1,1,0,0,1-.57.16l-.33,0-.28-.06Z"/><path class="cls-1" d="M77.15,58.25h-.64V50.53h.64v1h0a1.68,1.68,0,0,1,.36-.48,1.85,1.85,0,0,1,.48-.35,2.11,2.11,0,0,1,.54-.22,2.05,2.05,0,0,1,.54-.07,2.68,2.68,0,0,1,1.15.22,2.13,2.13,0,0,1,.77.62,2.55,2.55,0,0,1,.45.92,4.71,4.71,0,0,1,.14,1.15,4.13,4.13,0,0,1-.15,1.11,2.79,2.79,0,0,1-.46.93,2.21,2.21,0,0,1-.77.65,2.34,2.34,0,0,1-1.09.24A2.47,2.47,0,0,1,78,56a2,2,0,0,1-.85-.77Zm0-4.93a2.9,2.9,0,0,0,.13.89,2.06,2.06,0,0,0,.37.74,1.74,1.74,0,0,0,.58.5,1.59,1.59,0,0,0,.79.19,1.82,1.82,0,0,0,.86-.2,1.56,1.56,0,0,0,.6-.54,2.43,2.43,0,0,0,.35-.8,3.38,3.38,0,0,0,.08-1,2.93,2.93,0,0,0-.14-.93,2.07,2.07,0,0,0-.4-.68,1.81,1.81,0,0,0-.6-.42A1.86,1.86,0,0,0,79,51a1.71,1.71,0,0,0-.8.18,1.68,1.68,0,0,0-.59.5,2.13,2.13,0,0,0-.36.74A3.51,3.51,0,0,0,77.15,53.32Z"/><path class="cls-1" d="M83.15,53.45a3,3,0,0,0,.11.85,2.14,2.14,0,0,0,.35.69,1.67,1.67,0,0,0,.58.47,1.8,1.8,0,0,0,.82.18,1.78,1.78,0,0,0,1.08-.33,1.6,1.6,0,0,0,.59-.94h.72a3.64,3.64,0,0,1-.31.73,2.48,2.48,0,0,1-.48.59,2.37,2.37,0,0,1-.68.39,2.87,2.87,0,0,1-.92.14A2.68,2.68,0,0,1,83.86,56a2.18,2.18,0,0,1-.79-.61,2.57,2.57,0,0,1-.46-.92,4.19,4.19,0,0,1-.15-1.14,3.49,3.49,0,0,1,.18-1.14,2.92,2.92,0,0,1,.5-.94,2.24,2.24,0,0,1,.8-.63A2.44,2.44,0,0,1,85,50.38a2.2,2.2,0,0,1,1.79.78,3.44,3.44,0,0,1,.64,2.29Zm3.61-.54a2.68,2.68,0,0,0-.11-.76,1.93,1.93,0,0,0-.33-.62,1.48,1.48,0,0,0-.56-.42A1.79,1.79,0,0,0,85,51a1.67,1.67,0,0,0-.76.16,1.65,1.65,0,0,0-.55.42,2,2,0,0,0-.37.62,2.42,2.42,0,0,0-.18.75Z"/><path class="cls-1" d="M91.48,52.7v.66h-2.7V52.7Z"/><path class="cls-1" d="M92.56,56.07v-7.7h2.63c.22,0,.43,0,.63,0a4.07,4.07,0,0,1,.61.07,3.09,3.09,0,0,1,.59.18,2.75,2.75,0,0,1,.55.31,2.41,2.41,0,0,1,.63.68,4,4,0,0,1,.39.84,5.81,5.81,0,0,1,.2.9,6.38,6.38,0,0,1,.06.84,7.11,7.11,0,0,1,0,.78,5,5,0,0,1-.15.77,3.58,3.58,0,0,1-.29.73,2.71,2.71,0,0,1-.44.64,2.35,2.35,0,0,1-.58.48,3.06,3.06,0,0,1-.67.28A4.17,4.17,0,0,1,96,56c-.25,0-.5,0-.76,0Zm.73-.62H95a6.81,6.81,0,0,0,.93-.06,2.63,2.63,0,0,0,.88-.3,1.61,1.61,0,0,0,.63-.52,2.79,2.79,0,0,0,.39-.72,3.18,3.18,0,0,0,.2-.82,5.87,5.87,0,0,0,.06-.82,6.15,6.15,0,0,0-.05-.85,3.73,3.73,0,0,0-.2-.83,2.79,2.79,0,0,0-.41-.71,2,2,0,0,0-.66-.54A2.4,2.4,0,0,0,96,49c-.31,0-.63,0-1,0H93.29Z"/><path class="cls-1" d="M100.65,56.07H100V50.53h.65v1h0a1.88,1.88,0,0,1,.69-.93,2.12,2.12,0,0,1,1.11-.26v.69a1.81,1.81,0,0,0-.89.18,1.44,1.44,0,0,0-.57.49,2,2,0,0,0-.28.73,4.18,4.18,0,0,0-.08.88Z"/><path class="cls-1" d="M103.6,49.32v-1h.7v1Zm0,6.75V50.53h.64v5.54Z"/><path class="cls-1" d="M105.32,50.53H106l1.8,4.75,1.79-4.75h.7l-2.15,5.54h-.72Z"/><path class="cls-1" d="M111,53.45a3,3,0,0,0,.11.85,2.14,2.14,0,0,0,.35.69,1.67,1.67,0,0,0,.58.47,1.8,1.8,0,0,0,.82.18,1.78,1.78,0,0,0,1.08-.33,1.65,1.65,0,0,0,.59-.94h.72a3.64,3.64,0,0,1-.31.73,2.48,2.48,0,0,1-.48.59,2.3,2.3,0,0,1-.69.39,2.81,2.81,0,0,1-.91.14,2.68,2.68,0,0,1-1.15-.23,2.18,2.18,0,0,1-.79-.61,2.57,2.57,0,0,1-.46-.92,4.19,4.19,0,0,1-.15-1.14,3.49,3.49,0,0,1,.18-1.14,2.92,2.92,0,0,1,.5-.94,2.24,2.24,0,0,1,.8-.63,2.44,2.44,0,0,1,1.07-.23,2.2,2.2,0,0,1,1.79.78,3.44,3.44,0,0,1,.64,2.29Zm3.61-.54a2.68,2.68,0,0,0-.11-.76,1.93,1.93,0,0,0-.33-.62,1.48,1.48,0,0,0-.56-.42,1.79,1.79,0,0,0-.75-.15,1.67,1.67,0,0,0-.76.16,1.65,1.65,0,0,0-.55.42,2,2,0,0,0-.37.62,2.42,2.42,0,0,0-.18.75Z"/><path class="cls-1" d="M116.55,56.07h-.64V50.53h.64v.77a4.3,4.3,0,0,1,.8-.66,1.74,1.74,0,0,1,1-.26,2.47,2.47,0,0,1,1,.18,1.6,1.6,0,0,1,.74.61,1.5,1.5,0,0,1,.24.61c0,.22,0,.43,0,.66v3.63h-.65V52.45a1.65,1.65,0,0,0-.33-1.12,1.4,1.4,0,0,0-1.1-.37,1.53,1.53,0,0,0-.54.09,1.61,1.61,0,0,0-.45.24,1.52,1.52,0,0,0-.33.34,1.36,1.36,0,0,0-.22.41,2.5,2.5,0,0,0-.12.51c0,.16,0,.34,0,.53Z"/><path class="cls-1" d="M126,56.07v-7.7h2.63c.22,0,.43,0,.63,0a4.07,4.07,0,0,1,.61.07,3.09,3.09,0,0,1,.59.18A3.06,3.06,0,0,1,131,49a2.41,2.41,0,0,1,.63.68,4,4,0,0,1,.39.84,5.81,5.81,0,0,1,.2.9,6.38,6.38,0,0,1,.06.84,7.11,7.11,0,0,1-.05.78,5,5,0,0,1-.15.77,4.27,4.27,0,0,1-.29.73,2.71,2.71,0,0,1-.44.64,2.35,2.35,0,0,1-.58.48,3.06,3.06,0,0,1-.67.28,4.17,4.17,0,0,1-.72.14c-.25,0-.5,0-.76,0Zm.73-.62h1.74a6.81,6.81,0,0,0,.93-.06,2.63,2.63,0,0,0,.88-.3,1.61,1.61,0,0,0,.63-.52,3.13,3.13,0,0,0,.39-.72,3.64,3.64,0,0,0,.2-.82,5.87,5.87,0,0,0,.06-.82,8.24,8.24,0,0,0-.05-.85,3.73,3.73,0,0,0-.2-.83,2.79,2.79,0,0,0-.41-.71,2,2,0,0,0-.66-.54,2.4,2.4,0,0,0-.82-.24c-.31,0-.63,0-.95,0h-1.74Z"/><path class="cls-1" d="M133,49.32v-1h.7v1Zm0,6.75V50.53h.64v5.54Z"/><path class="cls-1" d="M134.79,51.06v-.53h.82v-.88a1.82,1.82,0,0,1,.27-1,1,1,0,0,1,.91-.38h.28l.26,0v.59a1.49,1.49,0,0,0-.39-.05.69.69,0,0,0-.38.09.54.54,0,0,0-.21.24,1.14,1.14,0,0,0-.08.33c0,.13,0,.26,0,.38v.69h1.07v.53h-1.07v5h-.65v-5Z"/><path class="cls-1" d="M137.76,51.06v-.53h.83v-.88a1.9,1.9,0,0,1,.26-1,1,1,0,0,1,.91-.38H140l.26,0v.59a1.44,1.44,0,0,0-.39-.05.69.69,0,0,0-.38.09.54.54,0,0,0-.21.24,1.14,1.14,0,0,0-.08.33c0,.13,0,.26,0,.38v.69h1.07v.53h-1.07v5h-.64v-5Z"/><path class="cls-1" d="M141.26,53.45a3,3,0,0,0,.12.85,1.94,1.94,0,0,0,.34.69,1.71,1.71,0,0,0,.59.47,1.73,1.73,0,0,0,.81.18,1.78,1.78,0,0,0,1.08-.33,1.61,1.61,0,0,0,.6-.94h.71a3.14,3.14,0,0,1-.31.73,2.26,2.26,0,0,1-.48.59,2.37,2.37,0,0,1-.68.39,2.87,2.87,0,0,1-.92.14A2.66,2.66,0,0,1,142,56a2.13,2.13,0,0,1-.8-.61,2.74,2.74,0,0,1-.46-.92,4.19,4.19,0,0,1-.15-1.14,3.49,3.49,0,0,1,.18-1.14,3.13,3.13,0,0,1,.5-.94,2.33,2.33,0,0,1,.8-.63,2.44,2.44,0,0,1,1.07-.23,2.2,2.2,0,0,1,1.79.78,3.49,3.49,0,0,1,.65,2.29Zm3.61-.54a2.68,2.68,0,0,0-.11-.76,1.75,1.75,0,0,0-.33-.62,1.52,1.52,0,0,0-.55-.42,1.84,1.84,0,0,0-.76-.15,1.6,1.6,0,0,0-.75.16,1.68,1.68,0,0,0-.56.42,2.27,2.27,0,0,0-.37.62,3.16,3.16,0,0,0-.18.75Z"/><path class="cls-1" d="M147.05,56.07h-.64V50.53h.64v1h0a1.88,1.88,0,0,1,.69-.93,2.18,2.18,0,0,1,1.12-.26v.69a1.88,1.88,0,0,0-.9.18,1.48,1.48,0,0,0-.56.49,2,2,0,0,0-.29.73,5,5,0,0,0-.08.88Z"/><path class="cls-1" d="M149.69,53.45a3,3,0,0,0,.12.85,2.14,2.14,0,0,0,.35.69,1.67,1.67,0,0,0,.58.47,1.92,1.92,0,0,0,1.89-.15,1.61,1.61,0,0,0,.6-.94H154a3.64,3.64,0,0,1-.31.73,2.48,2.48,0,0,1-.48.59,2.3,2.3,0,0,1-.69.39,2.82,2.82,0,0,1-.92.14,2.66,2.66,0,0,1-1.14-.23,2.18,2.18,0,0,1-.79-.61,2.57,2.57,0,0,1-.46-.92,4.19,4.19,0,0,1-.15-1.14,3.49,3.49,0,0,1,.18-1.14,2.74,2.74,0,0,1,.5-.94,2.3,2.3,0,0,1,.79-.63,2.47,2.47,0,0,1,1.07-.23,2.21,2.21,0,0,1,1.8.78,3.49,3.49,0,0,1,.64,2.29Zm3.62-.54a2.37,2.37,0,0,0-.12-.76,1.61,1.61,0,0,0-.33-.62,1.44,1.44,0,0,0-.55-.42,1.81,1.81,0,0,0-.76-.15,1.65,1.65,0,0,0-.75.16,1.79,1.79,0,0,0-.56.42,2.24,2.24,0,0,0-.36.62,2.76,2.76,0,0,0-.19.75Z"/><path class="cls-1" d="M155.67,56.07H155V50.53h.64v.77a4,4,0,0,1,.8-.66,1.74,1.74,0,0,1,1-.26,2.51,2.51,0,0,1,.95.18,1.58,1.58,0,0,1,.73.61,1.26,1.26,0,0,1,.24.61,4.78,4.78,0,0,1,0,.66v3.63h-.64V52.45a1.65,1.65,0,0,0-.33-1.12,1.4,1.4,0,0,0-1.1-.37,1.63,1.63,0,0,0-.55.09,1.7,1.7,0,0,0-.44.24,1.57,1.57,0,0,0-.34.34,1.59,1.59,0,0,0-.21.41,2,2,0,0,0-.12.51c0,.16,0,.34,0,.53Z"/><path class="cls-1" d="M162.49,56.09l-.31.07a1.44,1.44,0,0,1-.43.06A1,1,0,0,1,161,56a1.18,1.18,0,0,1-.25-.87v-4H160v-.53h.78V49h.64v1.54h1v.53h-1v3.8c0,.13,0,.25,0,.35a.61.61,0,0,0,.07.25.32.32,0,0,0,.16.14,1.25,1.25,0,0,0,.32,0l.26,0,.26-.06Z"/><path class="cls-1" d="M163.58,49.32v-1h.71v1Zm0,6.75V50.53h.64v5.54Z"/><path class="cls-1" d="M168.22,52.84l.43-.07a1.27,1.27,0,0,0,.41-.11.34.34,0,0,0,.2-.26,1.22,1.22,0,0,0,0-.32,1.1,1.1,0,0,0-.32-.81,1.46,1.46,0,0,0-1.06-.31,3.86,3.86,0,0,0-.61,0,1.23,1.23,0,0,0-.48.21,1.07,1.07,0,0,0-.35.38,1.64,1.64,0,0,0-.17.61h-.66a2.07,2.07,0,0,1,.23-.84,1.72,1.72,0,0,1,.5-.57,2.14,2.14,0,0,1,.7-.32,3.59,3.59,0,0,1,1.64,0,1.87,1.87,0,0,1,.64.29,1.42,1.42,0,0,1,.43.53,2,2,0,0,1,.15.81v3a.61.61,0,0,0,.14.48c.08.07.26,0,.53-.05V56l-.21.07a1,1,0,0,1-.29,0,1.43,1.43,0,0,1-.29,0,.47.47,0,0,1-.25-.1.7.7,0,0,1-.16-.19,1,1,0,0,1-.08-.25,2.46,2.46,0,0,1,0-.28,2.79,2.79,0,0,1-.93.68,2.67,2.67,0,0,1-1.83.14,1.54,1.54,0,0,1-.6-.3,1.41,1.41,0,0,1-.4-.5,1.51,1.51,0,0,1-.15-.7c0-.94.64-1.49,1.93-1.66Zm1.08.32a3.12,3.12,0,0,1-.82.22q-.42.06-.84.09a2.27,2.27,0,0,0-1.15.33,1,1,0,0,0-.41.84,1,1,0,0,0,.1.45,1,1,0,0,0,.27.31,1.17,1.17,0,0,0,.39.18,1.61,1.61,0,0,0,.44.06,2.66,2.66,0,0,0,.75-.1,1.87,1.87,0,0,0,.64-.29,1.47,1.47,0,0,0,.46-.5,1.54,1.54,0,0,0,.17-.73Z"/><path class="cls-1" d="M171.29,56.07v-7.7h.64v7.7Z"/><path class="cls-1" d="M175.71,52.7v.66H173V52.7Z"/><path class="cls-1" d="M176.79,56.07v-7.7h2.63c.22,0,.43,0,.63,0a4.07,4.07,0,0,1,.61.07,3.09,3.09,0,0,1,.59.18,2.75,2.75,0,0,1,.55.31,2.41,2.41,0,0,1,.63.68,4,4,0,0,1,.39.84,5.81,5.81,0,0,1,.2.9,6.38,6.38,0,0,1,.06.84A7.11,7.11,0,0,1,183,53a5,5,0,0,1-.15.77,3.58,3.58,0,0,1-.29.73,2.71,2.71,0,0,1-.44.64,2.35,2.35,0,0,1-.58.48,3.06,3.06,0,0,1-.67.28,4.17,4.17,0,0,1-.72.14c-.25,0-.5,0-.76,0Zm.73-.62h1.74a6.81,6.81,0,0,0,.93-.06,2.63,2.63,0,0,0,.88-.3,1.61,1.61,0,0,0,.63-.52,2.79,2.79,0,0,0,.39-.72,3.18,3.18,0,0,0,.2-.82,5.87,5.87,0,0,0,.06-.82,6.15,6.15,0,0,0,0-.85,3.73,3.73,0,0,0-.2-.83,2.79,2.79,0,0,0-.41-.71,2,2,0,0,0-.66-.54,2.4,2.4,0,0,0-.82-.24c-.31,0-.63,0-1,0h-1.74Z"/><path class="cls-1" d="M184.27,49.32v-1h.7v1Zm0,6.75V50.53h.64v5.54Z"/><path class="cls-1" d="M188.91,52.84l.43-.07a1.35,1.35,0,0,0,.41-.11.36.36,0,0,0,.2-.26,1.87,1.87,0,0,0,0-.32,1.1,1.1,0,0,0-.32-.81,1.46,1.46,0,0,0-1.06-.31,3.76,3.76,0,0,0-.61,0,1.28,1.28,0,0,0-.49.21,1,1,0,0,0-.34.38,1.63,1.63,0,0,0-.18.61h-.65a1.93,1.93,0,0,1,.23-.84,1.69,1.69,0,0,1,.49-.57,2.3,2.3,0,0,1,.71-.32,3.36,3.36,0,0,1,.85-.1,3.21,3.21,0,0,1,.78.09,1.79,1.79,0,0,1,.64.29,1.25,1.25,0,0,1,.43.53,1.8,1.8,0,0,1,.16.81v3c0,.25,0,.41.13.48s.27,0,.54-.05V56l-.22.07a.9.9,0,0,1-.28,0,1.36,1.36,0,0,1-.29,0,.51.51,0,0,1-.26-.1.9.9,0,0,1-.15-.19.73.73,0,0,1-.08-.25,1.27,1.27,0,0,1,0-.28,2.79,2.79,0,0,1-.93.68,2.71,2.71,0,0,1-1.14.24,2.75,2.75,0,0,1-.7-.1,1.57,1.57,0,0,1-.59-.3,1.43,1.43,0,0,1-.41-.5,1.51,1.51,0,0,1-.15-.7c0-.94.65-1.49,1.94-1.66Zm1.08.32a3.09,3.09,0,0,1-.83.22c-.28,0-.55.07-.83.09a2.24,2.24,0,0,0-1.15.33,1,1,0,0,0-.41.84.91.91,0,0,0,.1.45,1,1,0,0,0,.27.31,1.21,1.21,0,0,0,.38.18,1.74,1.74,0,0,0,.45.06,2.64,2.64,0,0,0,.74-.1,1.93,1.93,0,0,0,.65-.29,1.57,1.57,0,0,0,.46-.5A1.54,1.54,0,0,0,190,54Z"/><path class="cls-1" d="M196.37,50.53H197v5a5.32,5.32,0,0,1-.11,1.07,2.48,2.48,0,0,1-.4.89,2.12,2.12,0,0,1-.79.61,3.06,3.06,0,0,1-1.3.23,3.32,3.32,0,0,1-1-.15,2.49,2.49,0,0,1-.71-.39,1.56,1.56,0,0,1-.42-.52,1.33,1.33,0,0,1-.16-.53h.69a1.09,1.09,0,0,0,.23.51,1.26,1.26,0,0,0,.38.31,1.87,1.87,0,0,0,.49.15,3.21,3.21,0,0,0,.55,0,2.1,2.1,0,0,0,1.05-.23,1.55,1.55,0,0,0,.6-.59,2.32,2.32,0,0,0,.26-.82,5.86,5.86,0,0,0,.05-.94,2,2,0,0,1-.85.77,2.51,2.51,0,0,1-1.13.27,2.38,2.38,0,0,1-1.1-.24,2.31,2.31,0,0,1-.77-.65,2.78,2.78,0,0,1-.45-.93,4.13,4.13,0,0,1-.15-1.11,4.71,4.71,0,0,1,.14-1.15,2.54,2.54,0,0,1,.44-.92,2.17,2.17,0,0,1,.78-.62,2.61,2.61,0,0,1,1.14-.22,2.13,2.13,0,0,1,.55.07,2.45,2.45,0,0,1,.54.22A2.26,2.26,0,0,1,196,51a2.15,2.15,0,0,1,.36.48h0Zm0,2.79a3.51,3.51,0,0,0-.12-.94,2.55,2.55,0,0,0-.36-.74,1.77,1.77,0,0,0-.59-.5,1.74,1.74,0,0,0-.8-.18,1.86,1.86,0,0,0-.75.14,1.81,1.81,0,0,0-.6.42,2.07,2.07,0,0,0-.4.68,2.67,2.67,0,0,0-.15.93,3.77,3.77,0,0,0,.09,1,2.42,2.42,0,0,0,.34.8,1.72,1.72,0,0,0,.6.54,1.8,1.8,0,0,0,.87.2,1.55,1.55,0,0,0,.78-.19,1.77,1.77,0,0,0,.59-.5,2.45,2.45,0,0,0,.37-.74A2.9,2.9,0,0,0,196.37,53.32Z"/><path class="cls-1" d="M199.05,56.07h-.64V50.53h.64v.77a4,4,0,0,1,.8-.66,1.74,1.74,0,0,1,1-.26,2.47,2.47,0,0,1,.95.18,1.6,1.6,0,0,1,.74.61,1.5,1.5,0,0,1,.24.61c0,.22,0,.43,0,.66v3.63h-.64V52.45a1.65,1.65,0,0,0-.33-1.12,1.4,1.4,0,0,0-1.1-.37,1.63,1.63,0,0,0-.55.09,1.7,1.7,0,0,0-.44.24,1.82,1.82,0,0,0-.34.34,1.59,1.59,0,0,0-.21.41,2.5,2.5,0,0,0-.12.51c0,.16,0,.34,0,.53Z"/><path class="cls-1" d="M206.13,56.22a3,3,0,0,1-1-.2,2.22,2.22,0,0,1-.81-.54,2.44,2.44,0,0,1-.55-.91,3.52,3.52,0,0,1-.21-1.27,4.13,4.13,0,0,1,.16-1.14,2.93,2.93,0,0,1,.48-.93,2.37,2.37,0,0,1,.81-.62,2.6,2.6,0,0,1,1.12-.23,2.65,2.65,0,0,1,1.13.23,2.24,2.24,0,0,1,.8.62,2.45,2.45,0,0,1,.48.92,4.26,4.26,0,0,1,.15,1.15,3.67,3.67,0,0,1-.18,1.19,2.51,2.51,0,0,1-.52.92,2.2,2.2,0,0,1-.81.6A2.59,2.59,0,0,1,206.13,56.22ZM208,53.3a3.8,3.8,0,0,0-.11-.92,2.09,2.09,0,0,0-.33-.74,1.56,1.56,0,0,0-.58-.5,1.86,1.86,0,0,0-.86-.18,1.76,1.76,0,0,0-.86.19,1.74,1.74,0,0,0-.58.53,2.45,2.45,0,0,0-.34.75,3.57,3.57,0,0,0-.1.87,3.51,3.51,0,0,0,.12.94,2.18,2.18,0,0,0,.36.75,1.64,1.64,0,0,0,.59.48,1.86,1.86,0,0,0,.81.17,1.79,1.79,0,0,0,.86-.2,1.64,1.64,0,0,0,.58-.53,2.32,2.32,0,0,0,.33-.75A3.43,3.43,0,0,0,208,53.3Z"/><path class="cls-1" d="M210.24,54.33a1.61,1.61,0,0,0,.54,1,2.2,2.2,0,0,0,1.73.21,1.06,1.06,0,0,0,.42-.23.85.85,0,0,0,.25-.32.86.86,0,0,0,.09-.39A.71.71,0,0,0,213,54a2,2,0,0,0-.66-.31,6.66,6.66,0,0,0-.85-.19,5.12,5.12,0,0,1-.86-.24,1.83,1.83,0,0,1-.66-.46,1.29,1.29,0,0,1-.26-.85,1.45,1.45,0,0,1,.51-1.14,2.16,2.16,0,0,1,1.44-.44,2.47,2.47,0,0,1,1.46.4,1.81,1.81,0,0,1,.67,1.34h-.65a1.18,1.18,0,0,0-.48-.9,1.79,1.79,0,0,0-1-.26,1.39,1.39,0,0,0-.93.26.83.83,0,0,0-.33.69.66.66,0,0,0,.27.57,2.08,2.08,0,0,0,.65.32c.27.08.55.16.86.22a3.68,3.68,0,0,1,.85.27,1.82,1.82,0,0,1,.66.48,1.2,1.2,0,0,1,.26.83,1.32,1.32,0,0,1-.17.7,1.43,1.43,0,0,1-.47.51,1.91,1.91,0,0,1-.71.3,3.58,3.58,0,0,1-.9.11,2.33,2.33,0,0,1-.87-.15,1.78,1.78,0,0,1-.65-.4,1.81,1.81,0,0,1-.42-.6,2.23,2.23,0,0,1-.17-.74Z"/><path class="cls-1" d="M215.07,49.32v-1h.7v1Zm0,6.75V50.53h.64v5.54Z"/><path class="cls-1" d="M217.75,54.33a1.61,1.61,0,0,0,.54,1,1.8,1.8,0,0,0,1.12.3,1.91,1.91,0,0,0,.61-.09,1.06,1.06,0,0,0,.42-.23,1,1,0,0,0,.25-.32.85.85,0,0,0,.08-.39.68.68,0,0,0-.26-.6,1.84,1.84,0,0,0-.66-.31,6.29,6.29,0,0,0-.85-.19,5.4,5.4,0,0,1-.86-.24,1.71,1.71,0,0,1-.65-.46,1.24,1.24,0,0,1-.27-.85,1.45,1.45,0,0,1,.51-1.14,2.16,2.16,0,0,1,1.44-.44,2.43,2.43,0,0,1,1.46.4,1.85,1.85,0,0,1,.68,1.34h-.65a1.18,1.18,0,0,0-.49-.9,1.77,1.77,0,0,0-1-.26,1.39,1.39,0,0,0-.93.26.85.85,0,0,0-.32.69.68.68,0,0,0,.26.57,2.14,2.14,0,0,0,.66.32,8.74,8.74,0,0,0,.85.22,3.76,3.76,0,0,1,.86.27,2,2,0,0,1,.66.48,1.25,1.25,0,0,1,.26.83,1.42,1.42,0,0,1-.17.7,1.53,1.53,0,0,1-.47.51,2,2,0,0,1-.71.3,3.72,3.72,0,0,1-.91.11,2.33,2.33,0,0,1-.87-.15,1.87,1.87,0,0,1-.65-.4,1.94,1.94,0,0,1-.41-.6,2,2,0,0,1-.17-.74Z"/><path class="cls-1" d="M226.73,53.77a2.22,2.22,0,0,0,.23.87,1.61,1.61,0,0,0,.48.58,2,2,0,0,0,.68.33,3.12,3.12,0,0,0,.82.1,2.65,2.65,0,0,0,.89-.13,1.58,1.58,0,0,0,.61-.35,1.34,1.34,0,0,0,.35-.5,1.83,1.83,0,0,0,.11-.61,1.24,1.24,0,0,0-.2-.73,1.54,1.54,0,0,0-.53-.45,3.17,3.17,0,0,0-.75-.29l-.87-.21a6.46,6.46,0,0,1-.86-.24,2.39,2.39,0,0,1-.75-.37,1.74,1.74,0,0,1-.53-.61,1.83,1.83,0,0,1-.2-.93,1.9,1.9,0,0,1,.16-.77,2,2,0,0,1,.49-.66,2.25,2.25,0,0,1,.82-.46,3.31,3.31,0,0,1,1.13-.17,3.25,3.25,0,0,1,1.14.18,2.17,2.17,0,0,1,.81.49,2.25,2.25,0,0,1,.48.74,2.37,2.37,0,0,1,.16.88h-.69a1.73,1.73,0,0,0-.16-.75,1.38,1.38,0,0,0-.42-.53,2,2,0,0,0-.61-.3,2.76,2.76,0,0,0-.71-.09,2.52,2.52,0,0,0-.93.15,1.7,1.7,0,0,0-.61.4,1.44,1.44,0,0,0-.31.55,1.52,1.52,0,0,0,0,.6,1,1,0,0,0,.3.59,1.8,1.8,0,0,0,.58.37,4.12,4.12,0,0,0,.75.24l.84.19c.29.07.56.15.83.24a2.42,2.42,0,0,1,.71.38,1.64,1.64,0,0,1,.5.6,2.09,2.09,0,0,1,.19.92,2,2,0,0,1-.74,1.66,3.28,3.28,0,0,1-2.08.59,3.59,3.59,0,0,1-1.11-.16,2.45,2.45,0,0,1-.89-.47,2.28,2.28,0,0,1-.58-.78,2.62,2.62,0,0,1-.21-1.09Z"/><path class="cls-1" d="M232.4,57.56l.26,0,.27,0a.62.62,0,0,0,.44-.17,1.49,1.49,0,0,0,.28-.41,2.82,2.82,0,0,0,.19-.51,2.7,2.7,0,0,1,.17-.44l-2.15-5.57h.72l1.77,4.76,1.78-4.76h.69L234.76,56c-.13.35-.25.66-.37.94a3.59,3.59,0,0,1-.38.71,1.43,1.43,0,0,1-.43.45,1,1,0,0,1-.58.16l-.32,0-.28-.06Z"/><path class="cls-1" d="M237.73,54.33a1.61,1.61,0,0,0,.54,1,1.8,1.8,0,0,0,1.12.3,1.91,1.91,0,0,0,.61-.09,1.06,1.06,0,0,0,.42-.23,1,1,0,0,0,.25-.32.85.85,0,0,0,.08-.39.68.68,0,0,0-.26-.6,1.87,1.87,0,0,0-.65-.31,6.82,6.82,0,0,0-.86-.19,5,5,0,0,1-.85-.24,1.67,1.67,0,0,1-.66-.46,1.24,1.24,0,0,1-.26-.85,1.45,1.45,0,0,1,.5-1.14,2.16,2.16,0,0,1,1.44-.44,2.43,2.43,0,0,1,1.46.4,1.85,1.85,0,0,1,.68,1.34h-.65a1.18,1.18,0,0,0-.49-.9,1.77,1.77,0,0,0-1-.26,1.39,1.39,0,0,0-.93.26.85.85,0,0,0-.32.69.68.68,0,0,0,.26.57,2.25,2.25,0,0,0,.66.32,8.74,8.74,0,0,0,.85.22,3.76,3.76,0,0,1,.86.27,2,2,0,0,1,.66.48,1.25,1.25,0,0,1,.26.83,1.42,1.42,0,0,1-.17.7,1.53,1.53,0,0,1-.47.51,2,2,0,0,1-.71.3,3.72,3.72,0,0,1-.91.11,2.41,2.41,0,0,1-.87-.15,1.74,1.74,0,0,1-.64-.4,1.81,1.81,0,0,1-.42-.6,2,2,0,0,1-.17-.74Z"/><path class="cls-1" d="M244.43,56.09l-.31.07a1.44,1.44,0,0,1-.43.06A1,1,0,0,1,243,56a1.18,1.18,0,0,1-.25-.87v-4h-.78v-.53h.78V49h.64v1.54h1v.53h-1v3.8c0,.13,0,.25,0,.35a.61.61,0,0,0,.07.25.32.32,0,0,0,.16.14,1.25,1.25,0,0,0,.32,0l.26,0a2,2,0,0,0,.26-.06Z"/><path class="cls-1" d="M245.21,53.45a3,3,0,0,0,.12.85,2,2,0,0,0,.35.69,1.67,1.67,0,0,0,.58.47,1.92,1.92,0,0,0,1.89-.15,1.61,1.61,0,0,0,.6-.94h.72a3.64,3.64,0,0,1-.31.73,2.48,2.48,0,0,1-.48.59,2.43,2.43,0,0,1-.69.39,2.82,2.82,0,0,1-.92.14,2.66,2.66,0,0,1-1.14-.23,2.1,2.1,0,0,1-.79-.61,2.57,2.57,0,0,1-.46-.92,4.19,4.19,0,0,1-.15-1.14,3.78,3.78,0,0,1,.17-1.14,2.94,2.94,0,0,1,.51-.94,2.21,2.21,0,0,1,.79-.63,2.47,2.47,0,0,1,1.07-.23,2.22,2.22,0,0,1,1.8.78,3.49,3.49,0,0,1,.64,2.29Zm3.62-.54a2.37,2.37,0,0,0-.12-.76,1.61,1.61,0,0,0-.33-.62,1.44,1.44,0,0,0-.55-.42,1.81,1.81,0,0,0-.76-.15,1.65,1.65,0,0,0-.75.16,1.79,1.79,0,0,0-.56.42,2.55,2.55,0,0,0-.37.62,3.16,3.16,0,0,0-.18.75Z"/><path class="cls-1" d="M251.1,56.07h-.64V50.53h.64v.83h0a1.72,1.72,0,0,1,.71-.73,2,2,0,0,1,1-.25,2.48,2.48,0,0,1,.66.08,1.58,1.58,0,0,1,.45.23,1.24,1.24,0,0,1,.31.34,2.74,2.74,0,0,1,.21.42,1.89,1.89,0,0,1,.74-.81,2.2,2.2,0,0,1,1.07-.26,1.8,1.8,0,0,1,.9.19,1.29,1.29,0,0,1,.52.49,1.87,1.87,0,0,1,.24.7,5.32,5.32,0,0,1,.06.81v3.5h-.64V52.24a1.54,1.54,0,0,0-.26-.94,1.06,1.06,0,0,0-.93-.34,1.6,1.6,0,0,0-.68.15,1.44,1.44,0,0,0-.57.48,1.4,1.4,0,0,0-.18.32c0,.13-.08.26-.11.39a2.9,2.9,0,0,0-.06.41c0,.13,0,.26,0,.37v3h-.65V52.24a1.54,1.54,0,0,0-.25-.94,1.08,1.08,0,0,0-.93-.34,1.6,1.6,0,0,0-.68.15,1.44,1.44,0,0,0-.57.48,1.4,1.4,0,0,0-.18.32,2.85,2.85,0,0,0-.11.39,2.9,2.9,0,0,0-.06.41c0,.13,0,.26,0,.37Z"/><path class="cls-1" d="M17.05,11C10.2,10,5.47,15.31,4.31,16.76a.37.37,0,0,0,.13.56L8,19a.36.36,0,0,0,.44-.11,29.64,29.64,0,0,1,8.69-7.58A.21.21,0,0,0,17.05,11Z"/><path class="cls-1" d="M9.44.17C11.33-.17,19.83-1,19.25,10a.25.25,0,0,1-.35.22A20.64,20.64,0,0,1,9.24.57.28.28,0,0,1,9.44.17Z"/><path class="cls-1" d="M13.23,34.13c.8-5.35-1.12-9.37-6-9.69a.72.72,0,0,0-.68.36l-2.3,3.69a.18.18,0,0,0,.17.27c1.18-.19,4.67-.52,5.54,2a13.42,13.42,0,0,1,.47,6.62.24.24,0,0,1-.39.15,2.69,2.69,0,0,0-2.39-.23c-1.16.41-.2-6.32-3.77-5.75A3,3,0,0,0,1.83,33C1,34.5-.92,38.07.51,39.75c2,2.34,7.57,2.74,10.38-.37A12.69,12.69,0,0,0,13.23,34.13Z"/><path class="cls-1" d="M23.27,48c0-7,5-9.43,8.56-18.85a.14.14,0,0,0-.24-.13c-5,7.27-13,12-12.76,18.91a8.85,8.85,0,0,0,8,8.17.21.21,0,0,0,.15-.39C25.58,54.77,23.27,52.58,23.27,48Z"/><path class="cls-1" d="M15.13,15.13l3.48-2.71a.33.33,0,0,1,.4,0,12.06,12.06,0,0,1,4.71,12c-1.44,8.39-7.56,13.21-6.29,22a.11.11,0,0,1-.2.08c-.63-.93-2-3.88.28-10,5.52-15-.57-19.81-2.35-20.84A.34.34,0,0,1,15.13,15.13Z"/><path class="cls-1" d="M20.76,10.79a.2.2,0,0,0-.09.37c8.84,5,6.84,13.87,2.48,21.3a37.58,37.58,0,0,0-4.23,9.07.17.17,0,0,0,.32.13,50.51,50.51,0,0,1,6-7.95c5.78-6.39,7.4-9.66,7-14.62C31.45,10.9,23.23,10.67,20.76,10.79Z"/><path class="cls-1" d="M10,20.59l1.93-2.36a.27.27,0,0,1,.29-.1c.73.16,3.39,1.07,4.8,5.78a11.62,11.62,0,0,1-1,8.87.24.24,0,0,1-.45-.13c.15-2.46-.05-8.63-5.46-11.51A.37.37,0,0,1,10,20.59Z"/></svg>