<svg xmlns="http://www.w3.org/2000/svg" viewBox="0 0 282.22 59.61"><defs><style>.cls-1{fill:#fff;}</style></defs><g id="レイヤー_1" data-name="レイヤー 1"><path class="cls-1" d="M59,34.88a9.86,9.86,0,0,1-6.48,1.89H47.17v9.29H41.81V20.23H52.9a9,9,0,0,1,6.12,2q2.28,2,2.28,6.18Q61.3,33,59,34.88Zm-4.12-9.3A4.31,4.31,0,0,0,52,24.72H47.17v7.6H52a4.13,4.13,0,0,0,2.87-.93,3.8,3.8,0,0,0,1-2.94A3.56,3.56,0,0,0,54.91,25.58Z"/><path class="cls-1" d="M68.76,27V38.47a6,6,0,0,0,.39,2.46,2.64,2.64,0,0,0,2.66,1.45,3.49,3.49,0,0,0,3.49-2.07,7.39,7.39,0,0,0,.49-3V27h5.06v19.1H76v-2.7c0,.06-.16.24-.35.53a3.78,3.78,0,0,1-.66.77,7,7,0,0,1-2.27,1.44,7.89,7.89,0,0,1-2.56.38c-2.82,0-4.72-1-5.69-3a11.64,11.64,0,0,1-.82-5V27Z"/><path class="cls-1" d="M99.86,29.26a11,11,0,0,1,2.15,7,12.27,12.27,0,0,1-2.12,7.37,7.66,7.66,0,0,1-9.72,2,7.54,7.54,0,0,1-1.87-2v2.4H83.38V20.27h5v9.18a7.3,7.3,0,0,1,2.1-2,6.24,6.24,0,0,1,3.46-.88A7.13,7.13,0,0,1,99.86,29.26ZM95.69,40.89a7.05,7.05,0,0,0,1.08-4.1,9.21,9.21,0,0,0-.53-3.36,3.69,3.69,0,0,0-3.71-2.53,3.77,3.77,0,0,0-3.77,2.47,9.29,9.29,0,0,0-.53,3.4,7.1,7.1,0,0,0,1.1,4.07,3.77,3.77,0,0,0,3.34,1.61A3.47,3.47,0,0,0,95.69,40.89Z"/><path class="cls-1" d="M106.91,22.93a10.62,10.62,0,0,1,7.94-3.19q6.45,0,9.43,4.28a9.27,9.27,0,0,1,1.77,4.82h-5.4A7.29,7.29,0,0,0,119.33,26a5.86,5.86,0,0,0-8.82.69,11.63,11.63,0,0,0-1.67,6.72q0,4.35,1.76,6.51a5.49,5.49,0,0,0,4.46,2.17,5.05,5.05,0,0,0,4.24-1.86,8.18,8.18,0,0,0,1.34-3H126a11.61,11.61,0,0,1-3.55,6.87,10.28,10.28,0,0,1-7.3,2.65,10.94,10.94,0,0,1-8.67-3.58q-3.17-3.59-3.16-9.84Q103.32,26.6,106.91,22.93Z"/><path class="cls-1" d="M136.09,34.44a7.35,7.35,0,0,0,2-.44,1.49,1.49,0,0,0,1.08-1.41,1.69,1.69,0,0,0-.83-1.63,5.3,5.3,0,0,0-2.42-.44,3.19,3.19,0,0,0-2.54.87,3.63,3.63,0,0,0-.71,1.76h-4.82A7.29,7.29,0,0,1,129.25,29c1.32-1.68,3.6-2.53,6.83-2.53a12.14,12.14,0,0,1,5.59,1.25q2.45,1.24,2.45,4.69v8.77c0,.6,0,1.34,0,2.2a2.92,2.92,0,0,0,.3,1.34,1.83,1.83,0,0,0,.74.57v.74h-5.43a5.09,5.09,0,0,1-.32-1.09c-.06-.33-.1-.72-.14-1.15a10.2,10.2,0,0,1-2.4,1.91,7.22,7.22,0,0,1-3.66.93,6.35,6.35,0,0,1-4.31-1.48,5.26,5.26,0,0,1-1.7-4.2,5.44,5.44,0,0,1,2.73-5.1,12.34,12.34,0,0,1,4.42-1.23Zm3,2.33a5.89,5.89,0,0,1-1,.49,8.81,8.81,0,0,1-1.34.34l-1.13.21a7.31,7.31,0,0,0-2.3.68,2.28,2.28,0,0,0-1.18,2.12,2.22,2.22,0,0,0,.72,1.85,2.74,2.74,0,0,0,1.75.57,5.22,5.22,0,0,0,3-1,4,4,0,0,0,1.43-3.45Z"/><path class="cls-1" d="M150.92,40a3.34,3.34,0,0,0,.69,1.9q.93,1,3.45,1a5.33,5.33,0,0,0,2.35-.43,1.47,1.47,0,0,0,.17-2.6,28.91,28.91,0,0,0-5.23-1.5,10.75,10.75,0,0,1-4.58-2,4.36,4.36,0,0,1-1.34-3.43,6,6,0,0,1,2.08-4.55,8.37,8.37,0,0,1,5.86-1.9,10.77,10.77,0,0,1,5.84,1.42,6.14,6.14,0,0,1,2.59,4.94h-5a3,3,0,0,0-.55-1.53,3.46,3.46,0,0,0-2.81-1,4,4,0,0,0-2.33.51,1.44,1.44,0,0,0-.69,1.19,1.29,1.29,0,0,0,.74,1.24,32.19,32.19,0,0,0,5.21,1.39,9.43,9.43,0,0,1,4.47,2.12,4.77,4.77,0,0,1,1.48,3.59,5.79,5.79,0,0,1-2.12,4.63q-2.11,1.8-6.54,1.8T148,44.81A6.16,6.16,0,0,1,145.86,40Z"/><path class="cls-1" d="M178.74,27.35a7.78,7.78,0,0,1,3.3,2.82,9.41,9.41,0,0,1,1.52,3.95,24.41,24.41,0,0,1,.16,3.79H169.81a4.57,4.57,0,0,0,2,4,5.05,5.05,0,0,0,2.75.72,3.83,3.83,0,0,0,3.8-2.19h5.1a6.22,6.22,0,0,1-1.85,3.45,9.28,9.28,0,0,1-7.19,2.79,10.37,10.37,0,0,1-6.72-2.35q-2.92-2.36-2.92-7.65c0-3.31.88-5.84,2.63-7.61a9.2,9.2,0,0,1,6.83-2.65A10.86,10.86,0,0,1,178.74,27.35Zm-7.48,4.31a5.28,5.28,0,0,0-1.33,3h8.61a4.19,4.19,0,0,0-1.33-3,4.38,4.38,0,0,0-3-1A4,4,0,0,0,171.26,31.66Z"/><path class="cls-1" d="M185.22,20.27h18.41V24.8h-13v5.95H202v4.48H190.58V46.06h-5.36Z"/><path class="cls-1" d="M210.43,24.68h-5.06V20.07h5.06ZM205.37,27h5.06v19.1h-5.06Z"/><path class="cls-1" d="M227.8,28.06q1.88,1.55,1.88,5.14V46.06h-5.12V34.44a5.29,5.29,0,0,0-.4-2.31,2.81,2.81,0,0,0-2.78-1.47,3.45,3.45,0,0,0-3.46,2.15,7.36,7.36,0,0,0-.49,2.91V46.06h-5V27h4.83v2.78a8.46,8.46,0,0,1,1.82-2.12A6.29,6.29,0,0,1,223,26.5,7.29,7.29,0,0,1,227.8,28.06Z"/><path class="cls-1" d="M242.3,27.27a6,6,0,0,1,2.19,2.11V20.27h5.06V46.06H244.7V43.41a7.07,7.07,0,0,1-2.44,2.48,6.87,6.87,0,0,1-3.4.77A7.1,7.1,0,0,1,233.23,44a10.38,10.38,0,0,1-2.29-7,12,12,0,0,1,2.25-7.69,7.33,7.33,0,0,1,6-2.81A6.16,6.16,0,0,1,242.3,27.27Zm1.22,13.6a6.93,6.93,0,0,0,1.11-4.08q0-3.51-1.77-5a3.82,3.82,0,0,0-2.53-.91,3.5,3.5,0,0,0-3.21,1.65,7.73,7.73,0,0,0-1,4.11,7.58,7.58,0,0,0,1,4.24,3.53,3.53,0,0,0,3.16,1.58A3.66,3.66,0,0,0,243.52,40.87Z"/><path class="cls-1" d="M265.1,27.35a7.72,7.72,0,0,1,3.3,2.82,9.42,9.42,0,0,1,1.53,3.95,25.74,25.74,0,0,1,.16,3.79H256.18a4.57,4.57,0,0,0,2,4,5.05,5.05,0,0,0,2.75.72,4.23,4.23,0,0,0,2.77-.87,4.3,4.3,0,0,0,1-1.32h5.1A6.28,6.28,0,0,1,268,43.92a9.28,9.28,0,0,1-7.19,2.79,10.42,10.42,0,0,1-6.73-2.35q-2.91-2.36-2.91-7.65c0-3.31.88-5.84,2.63-7.61a9.18,9.18,0,0,1,6.83-2.65A10.81,10.81,0,0,1,265.1,27.35Zm-7.47,4.31a5.15,5.15,0,0,0-1.33,3h8.6a4.15,4.15,0,0,0-1.33-3,4.34,4.34,0,0,0-3-1A4,4,0,0,0,257.63,31.66Z"/><path class="cls-1" d="M281.79,26.51l.43,0v5.12c-.32,0-.6-.06-.84-.07s-.45,0-.6,0q-3,0-4,2a7.75,7.75,0,0,0-.57,3.4v9.13h-5V27h4.76v3.33a10.7,10.7,0,0,1,2-2.61,5.49,5.49,0,0,1,3.64-1.18Z"/><path class="cls-1" d="M18.13,11.64c-7.28-1-12.31,4.64-13.54,6.19a.39.39,0,0,0,.13.59l3.79,1.81A.4.4,0,0,0,9,20.12a31.46,31.46,0,0,1,9.23-8.06A.22.22,0,0,0,18.13,11.64Z"/><path class="cls-1" d="M10,.18c2-.36,11.05-1.29,10.43,10.43a.27.27,0,0,1-.37.23A22,22,0,0,1,9.83.61.29.29,0,0,1,10,.18Z"/><path class="cls-1" d="M14.07,36.3c.85-5.69-1.2-10-6.35-10.31a.78.78,0,0,0-.72.38L4.55,30.29a.19.19,0,0,0,.19.29c1.25-.2,4.95-.55,5.88,2.11a14.34,14.34,0,0,1,.51,7,.26.26,0,0,1-.43.16,2.81,2.81,0,0,0-2.54-.24c-1.22.43-.21-6.72-4-6.12A3.11,3.11,0,0,0,2,35.13C1.08,36.69-1,40.48.55,42.27c2.13,2.49,8,2.91,11-.4A13.66,13.66,0,0,0,14.07,36.3Z"/><path class="cls-1" d="M24.75,51c0-7.46,5.28-10,9.1-20a.15.15,0,0,0-.26-.14C28.31,38.54,19.73,43.57,20,50.91a9.41,9.41,0,0,0,8.45,8.7.23.23,0,0,0,.17-.42C27.2,58.25,24.75,55.91,24.75,51Z"/><path class="cls-1" d="M16.08,16.09l3.71-2.88a.35.35,0,0,1,.43,0,12.84,12.84,0,0,1,5,12.79c-1.52,8.92-8,14.05-6.68,23.36a.12.12,0,0,1-.22.09c-.67-1-2.08-4.13.29-10.59,5.88-16-.59-21.07-2.49-22.16A.37.37,0,0,1,16.08,16.09Z"/><path class="cls-1" d="M22.08,11.47a.21.21,0,0,0-.09.4c9.39,5.28,7.26,14.75,2.63,22.65a40.11,40.11,0,0,0-4.5,9.64.19.19,0,0,0,.34.14,53.57,53.57,0,0,1,6.36-8.45c6.14-6.8,7.87-10.27,7.4-15.55C33.44,11.6,24.7,11.35,22.08,11.47Z"/><path class="cls-1" d="M10.65,21.9l2-2.51a.31.31,0,0,1,.32-.11c.77.17,3.6,1.13,5.1,6.15a12.35,12.35,0,0,1-1.05,9.43.26.26,0,0,1-.48-.14c.16-2.62,0-9.18-5.81-12.24A.38.38,0,0,1,10.65,21.9Z"/></g></svg>